<svg width="42" height="49" viewBox="0 0 42 49" fill="none" xmlns="http://www.w3.org/2000/svg">
<path d="M41.8984 22.5562V11.6465C41.8984 11.4322 41.7812 11.2374 41.5957 11.1302L33.002 6.45462C32.8262 6.35721 32.6113 6.35721 32.4453 6.45462L30.1797 7.68196V5.41236C30.1797 5.19806 30.0625 5.00325 29.877 4.8961L21.2832 0.220517C21.1074 0.123109 20.8926 0.123109 20.7266 0.220517L12.1328 4.8961C11.9473 5.00325 11.8301 5.19806 11.8301 5.41236V7.68196L9.57422 6.45462C9.39844 6.35721 9.18359 6.35721 9.01758 6.45462L0.423828 11.1302C0.238281 11.2374 0.121094 11.4322 0.121094 11.6465V22.5562C0.121094 22.7704 0.238281 22.9653 0.423828 23.0724L2.32813 24.1147L0.404297 25.1569C0.21875 25.2641 0.101562 25.4589 0.101562 25.6732V36.5829C0.101562 36.7972 0.21875 36.992 0.404297 37.0991L8.99805 41.7747C9.17383 41.8721 9.38867 41.8721 9.55469 41.7747L11.8105 40.5474V42.817C11.8105 43.0313 11.9277 43.2261 12.1133 43.3333L20.707 48.0088C20.8828 48.1062 21.0977 48.1062 21.2637 48.0088L29.8574 43.3333C30.043 43.2261 30.1602 43.0313 30.1602 42.817V40.5376L32.416 41.765C32.5918 41.8624 32.8066 41.8624 32.9727 41.765L41.5664 37.0894C41.752 36.9823 41.8691 36.7874 41.8691 36.5731V25.6732C41.8691 25.4589 41.752 25.2641 41.5664 25.1569L39.6719 24.1147L41.5957 23.0724C41.7812 22.9653 41.8984 22.7704 41.8984 22.5562ZM32.7188 7.63326L40.0918 11.6465L32.7188 15.6597L25.3457 11.6465L32.7188 7.63326ZM32.1328 40.2746L30.1797 39.2129V31.9073C30.1797 31.693 30.0625 31.4982 29.877 31.391L27.9531 30.3488L29.7207 29.3844L32.1328 30.6994V40.2746ZM21 35.9205L13.627 31.9073L15.2676 31.0112L20.7168 33.9724C20.8926 34.0698 21.1074 34.0698 21.2734 33.9724L26.7227 31.0112L28.3633 31.9073L21 35.9205ZM9.86719 16.6727L17.2891 12.64V14.5687L12.123 17.3741C11.9375 17.4812 11.8203 17.676 11.8203 17.8903V25.1959L9.86719 26.2576V16.6727ZM12.9922 6.39618L20.4141 10.4289V12.8543L18.4609 13.9161V11.6465C18.4609 11.4322 18.3438 11.2374 18.1582 11.1302L12.9922 8.32485V6.39618ZM29.0078 8.32485L23.8418 11.1302C23.6562 11.2374 23.5391 11.4322 23.5391 11.6465V13.9258L21.5859 12.8641V10.4386L29.0078 6.40592V8.32485ZM21.5859 32.482V22.9068L29.0078 18.8741V28.4493L21.5859 32.482ZM21 21.8938L13.627 17.8806L21 13.8674L28.373 17.8806L21 21.8938ZM12.9922 18.8644L20.4141 22.8971V32.4723L12.9922 28.4298V18.8644ZM29.877 17.3643L24.7109 14.559V12.6303L32.1328 16.663V26.2382L30.1797 25.1862V17.8806C30.1797 17.6663 30.0625 17.4715 29.877 17.3643ZM21 1.39915L28.373 5.41236L21 9.42556L13.627 5.41236L21 1.39915ZM9.28125 7.63326L16.6543 11.6465L9.28125 15.6597L1.9082 11.6465L9.28125 7.63326ZM1.27344 22.2055V12.6303L8.69531 16.663V26.2382L3.83203 23.5887L1.27344 22.2055ZM3.54883 24.7771L8.99805 27.7383C9.17383 27.8357 9.38867 27.8357 9.55469 27.7383L11.8105 26.5109V28.3032L9.27148 29.6864L1.9082 25.6732L3.54883 24.7771ZM1.27344 26.657L8.69531 30.6994V40.2746L1.27344 36.2322V26.657ZM9.86719 40.2746V30.6994L12.2793 29.3844L14.0469 30.3488L12.123 31.391C11.9375 31.4982 11.8203 31.693 11.8203 31.9073V39.2129L9.86719 40.2746ZM12.9922 32.8911L20.4141 36.9336V46.5088L12.9922 42.4663V32.8911ZM29.0078 42.4663L21.5859 46.5088V36.9336L29.0078 32.8911V42.4663ZM33.3047 40.2746V30.6994L40.7266 26.657V36.2322L33.3047 40.2746ZM40.0918 25.6732L32.7188 29.6864L30.1797 28.3032V26.5109L32.4355 27.7383C32.6113 27.8357 32.8262 27.8357 32.9922 27.7383L38.4414 24.7771L40.0918 25.6732ZM38.168 23.5984L33.3047 26.2479V16.6727L40.7266 12.64V22.2152L38.168 23.5984Z" fill="#1AD1B1"/>
</svg>
