<svg width="517" height="426" viewBox="0 0 517 426" fill="none" xmlns="http://www.w3.org/2000/svg">
<path d="M270.191 1.48093L513.996 142.242C516.668 143.784 516.668 147.642 513.996 149.185L250.819 301.13C249.579 301.846 248.05 301.846 246.81 301.13L93.8459 212.817L108.766 204.203L89.3942 193.02L74.4756 201.632L3.00517 160.369C0.33161 158.826 0.33161 154.969 3.00517 153.425L266.181 1.48093C267.422 0.765285 268.951 0.765285 270.191 1.48093Z" stroke="#1AD1B1" stroke-width="1.33333" stroke-linecap="round" stroke-linejoin="round"/>
<path d="M273.835 3.58494L22.0117 148.975L262.172 287.631L513.995 142.241" stroke="#1AD1B1" stroke-width="1.33333" stroke-linecap="round" stroke-linejoin="round"/>
<path d="M32.4613 177.377L3.00439 194.384C0.33187 195.926 0.33187 199.784 3.00439 201.328L74.4748 242.59L89.3944 233.977L108.765 245.161L93.8462 253.775L246.809 342.088C248.05 342.805 249.578 342.805 250.819 342.088L513.995 190.144C516.667 188.601 516.667 184.743 513.995 183.199L484.538 166.192" stroke="#1AD1B1" stroke-width="1.33333" stroke-linecap="round" stroke-linejoin="round"/>
<path d="M38.1112 180.637L22.0117 189.932L262.172 328.589L513.995 183.199" stroke="#1AD1B1" stroke-width="1.33333" stroke-linecap="round" stroke-linejoin="round"/>
<path d="M32.4613 218.449L3.00439 235.456C0.33187 236.998 0.33187 240.856 3.00439 242.399L74.4748 283.662L89.3944 275.049L108.765 286.233L93.8462 294.846L246.809 383.16C248.05 383.877 249.578 383.877 250.819 383.16L513.995 231.216C516.667 229.672 516.667 225.815 513.995 224.271L484.538 207.264" stroke="#1AD1B1" stroke-width="1.33333" stroke-linecap="round" stroke-linejoin="round"/>
<path d="M38.1112 221.71L22.0117 231.005L262.172 369.661L513.995 224.271" stroke="#1AD1B1" stroke-width="1.33333" stroke-linecap="round" stroke-linejoin="round"/>
<path d="M32.4613 259.751L3.00439 276.758C0.33187 278.301 0.33187 282.158 3.00439 283.702L74.4748 324.964L89.3944 316.351L108.765 327.535L93.8462 336.149L246.809 424.462C248.05 425.179 249.578 425.179 250.819 424.462L513.995 272.518C516.667 270.975 516.667 267.117 513.995 265.574L484.538 248.566" stroke="#1AD1B1" stroke-width="1.33333" stroke-linecap="round" stroke-linejoin="round"/>
<path d="M38.1112 263.012L22.0117 272.307L262.172 410.964L513.995 265.574" stroke="#1AD1B1" stroke-width="1.33333" stroke-linecap="round" stroke-linejoin="round"/>
</svg>
