<svg width="341" height="281" viewBox="0 0 341 281" fill="none" xmlns="http://www.w3.org/2000/svg">
<path d="M178.109 1.35307L338.516 93.9641C340.275 94.9789 340.275 97.517 338.516 98.5325L165.364 198.502C164.548 198.973 163.542 198.973 162.726 198.502L62.0863 140.398L71.9024 134.73L59.1574 127.372L49.342 133.039L2.31927 105.89C0.560245 104.876 0.560245 102.338 2.31927 101.322L175.471 1.35307C176.287 0.882222 177.293 0.882222 178.109 1.35307Z" stroke="#1AD1B1" stroke-width="1.33333" stroke-linecap="round" stroke-linejoin="round"/>
<path d="M180.507 2.73759L14.8242 98.3944L172.833 189.621L338.516 93.964" stroke="#1AD1B1" stroke-width="1.33333" stroke-linecap="round" stroke-linejoin="round"/>
<path d="M21.6994 117.081L2.31875 128.27C0.560416 129.285 0.560416 131.823 2.31875 132.839L49.3415 159.987L59.1575 154.32L71.9019 161.678L62.0865 167.345L162.726 225.45C163.542 225.921 164.548 225.921 165.364 225.45L338.516 125.481C340.274 124.465 340.274 121.927 338.516 120.912L319.135 109.722" stroke="#1AD1B1" stroke-width="1.33333" stroke-linecap="round" stroke-linejoin="round"/>
<path d="M25.4166 119.226L14.8242 125.342L172.833 216.568L338.516 120.911" stroke="#1AD1B1" stroke-width="1.33333" stroke-linecap="round" stroke-linejoin="round"/>
<path d="M21.6994 144.103L2.31875 155.293C0.560416 156.308 0.560416 158.846 2.31875 159.861L49.3415 187.009L59.1575 181.343L71.9019 188.701L62.0865 194.368L162.726 252.472C163.542 252.944 164.548 252.944 165.364 252.472L338.516 152.503C340.274 151.488 340.274 148.95 338.516 147.934L319.135 136.745" stroke="#1AD1B1" stroke-width="1.33333" stroke-linecap="round" stroke-linejoin="round"/>
<path d="M25.4166 146.249L14.8242 152.364L172.833 243.591L338.516 147.934" stroke="#1AD1B1" stroke-width="1.33333" stroke-linecap="round" stroke-linejoin="round"/>
<path d="M21.6994 171.277L2.31875 182.467C0.560416 183.482 0.560416 186.02 2.31875 187.035L49.3415 214.183L59.1575 208.517L71.9019 215.875L62.0865 221.542L162.726 279.646C163.542 280.118 164.548 280.118 165.364 279.646L338.516 179.677C340.274 178.662 340.274 176.124 338.516 175.108L319.135 163.919" stroke="#1AD1B1" stroke-width="1.33333" stroke-linecap="round" stroke-linejoin="round"/>
<path d="M25.4166 173.423L14.8242 179.539L172.833 270.765L338.516 175.108" stroke="#1AD1B1" stroke-width="1.33333" stroke-linecap="round" stroke-linejoin="round"/>
</svg>
