<svg width="282" height="223" viewBox="0 0 282 223" fill="none" xmlns="http://www.w3.org/2000/svg">
<path d="M166.612 161.841C164.003 162.451 161.437 162.683 158.975 162.557C146.668 161.883 136.466 152.08 132.237 134.262C125.947 107.629 135.036 71.7815 152.769 49.1464C155.126 46.138 157.629 43.3605 160.279 40.8574C176.352 25.711 193.308 25.0797 204.289 36.8814V36.9028M166.612 161.841C166.486 161.336 166.38 160.832 166.275 160.326M166.612 161.841C166.675 162.178 166.738 162.493 166.822 162.83C176.457 203.62 209.296 213.466 239.799 184.708C270.303 155.971 287.364 99.1088 277.708 58.3602C269.588 23.9859 244.953 11.5949 219.141 25.7951M165.896 158.306C165.055 158.349 164.235 158.328 163.393 158.286M165.896 158.306C165.792 157.843 165.707 157.36 165.623 156.876L165.602 156.856M165.896 158.306C165.98 158.874 166.086 159.443 166.212 160.011M163.393 158.286C162.53 158.223 161.668 158.118 160.805 157.971M163.393 158.286C164.319 158.938 165.244 159.527 166.212 160.011M163.393 158.286C162.678 157.781 162.004 157.213 161.331 156.603M160.805 157.971C160.321 157.886 159.838 157.781 159.354 157.654M160.805 157.971C160.785 158.118 160.721 158.244 160.658 158.37M159.354 157.654C159.333 157.654 159.312 157.654 159.27 157.634M159.354 157.654C159.775 157.907 160.217 158.16 160.658 158.37M159.27 157.634C149.719 155.193 141.999 146.358 138.59 131.8C132.805 107.376 140.863 74.6637 156.809 53.396C159.291 50.072 161.962 47.0216 164.824 44.3281C166.338 42.9401 167.811 41.6569 169.326 40.5211L169.346 40.4997C180.433 32.064 191.667 30.8441 200.439 36.082M159.27 157.634C152.517 153.594 147.174 145.685 144.481 134.262C138.969 110.911 146.08 79.965 160.637 58.7179C163.687 54.2581 167.053 50.2401 170.714 46.79C180.938 37.1765 191.477 33.8104 200.439 36.082M200.439 36.082H200.46M200.46 36.082C201.091 36.4397 201.681 36.8394 202.249 37.2598M200.46 36.082C201.659 36.3976 202.795 36.7974 203.91 37.2812M202.249 37.2598H202.269M202.249 37.2598C194.255 36.7553 185.292 40.4156 176.583 48.5785C171.829 53.0589 167.537 58.5291 163.814 64.6505M202.269 37.2598C202.585 37.4914 202.879 37.7229 203.195 37.9752M202.269 37.2598C202.795 37.2812 203.279 37.3232 203.784 37.4073M203.195 37.9752V37.9545M203.195 37.9752H203.216M203.195 37.9752H203.215C203.406 37.765 203.595 37.5754 203.784 37.4073M203.195 37.9752C202.669 38.4804 202.164 39.0062 201.659 39.5321M166.275 160.326C164.319 159.947 162.446 159.317 160.658 158.37M166.275 160.326C166.254 160.221 166.233 160.116 166.212 160.011M203.91 37.2812L204.289 36.9028C204.436 36.7553 204.584 36.6292 204.731 36.4817C209.507 31.9799 214.345 28.4251 219.141 25.7951M203.91 37.2812C203.868 37.3026 203.826 37.3446 203.784 37.4073M161.331 156.603C156.387 152.143 152.496 145.243 150.329 136.05C145.154 114.171 151.066 85.6454 163.814 64.6505M161.331 156.603C156.387 152.143 152.496 145.243 150.33 136.05C145.154 114.171 151.066 85.6454 163.814 64.6505M165.602 156.856C164.529 155.741 163.541 154.478 162.594 153.111C159.838 149.071 157.65 143.981 156.199 137.88C151.444 117.811 156.03 92.1245 166.654 71.8243C170.987 63.5353 176.331 56.1513 182.431 50.4083C188.848 44.3495 195.432 40.7733 201.659 39.5321M165.602 156.856C165.097 153.742 164.718 150.565 164.487 147.326C163.162 130.391 165.602 111.858 170.987 94.2707C176.415 76.5363 184.851 59.7489 195.517 46.495M201.659 39.5321C199.534 41.6989 197.515 44.0132 195.559 46.4537M164.466 147.368C163.541 145.011 162.698 142.445 162.046 139.668C157.839 121.913 160.953 99.7821 169.094 80.8486C173.89 69.6575 180.454 59.6014 188.301 52.2174C190.699 49.9665 193.097 48.0733 195.517 46.495M195.517 46.495C195.537 46.4743 195.537 46.4537 195.559 46.4537M195.517 46.495C195.538 46.4743 195.538 46.4537 195.559 46.4537M171.345 176.378C163.667 180.606 156.093 182.479 149.045 182.121M149.045 182.121C134.614 181.384 122.307 171.392 115.555 153.111M149.045 182.121C143.724 190.894 137.559 198.762 130.723 205.199C103.963 230.422 75.3741 225.92 62.289 196.847C60.4592 192.808 58.9237 188.285 57.7452 183.299C57.6611 182.962 57.5977 182.647 57.535 182.31M115.555 153.111C114.482 150.208 113.535 147.115 112.757 143.813M115.555 153.111C108.045 158.37 100.534 155.235 98.1781 145.243C95.5489 134.198 100.177 118.778 108.444 110.995C109.096 110.363 109.77 109.817 110.443 109.354M115.555 153.111C114.482 150.208 113.536 147.115 112.757 143.813M112.757 143.813C110.233 133.147 109.538 121.408 110.443 109.354C112.189 85.6034 120.099 60.6745 132.364 40.5417M112.757 143.813C110.234 133.147 109.538 121.408 110.443 109.354M132.364 40.5417C137.686 31.7697 143.85 23.9019 150.686 17.4648C177.466 -7.75907 206.035 -3.23587 219.141 25.7951M132.364 40.5417C120.099 60.6745 112.189 85.6034 110.443 109.354M132.364 40.5417C125.316 40.184 117.743 42.0566 110.065 46.2641M95.2332 57.3926L95.2118 57.3712C84.2309 45.5487 67.2754 46.1801 51.2027 61.3265C28.6516 82.553 16.0289 124.585 23.1607 154.731C28.2304 176.125 41.9468 185.991 57.535 182.31M57.535 182.31C57.4089 181.806 57.3034 181.3 57.1987 180.796M56.8196 178.776C55.9781 178.839 55.158 178.797 54.3371 178.755M56.8196 178.776C56.7149 178.292 56.63 177.809 56.546 177.324M56.8196 178.776C56.9037 179.365 57.0091 179.933 57.1353 180.501M54.3371 178.755C52.9491 178.671 51.6024 178.461 50.2771 178.124M54.3371 178.755C55.242 179.407 56.1676 179.996 57.1353 180.501M54.3371 178.755C48.3839 174.443 43.7139 166.953 41.252 156.539C34.5628 128.287 46.3852 88.948 67.5062 69.0682C76.2156 60.8847 85.1779 57.245 93.1719 57.7296M50.2771 178.124C50.2564 178.124 50.235 178.124 50.2144 178.103M50.2771 178.124C52.4653 179.449 54.7789 180.332 57.1987 180.796M50.2771 178.124C50.2564 178.124 50.235 178.124 50.2136 178.103C40.6421 175.662 32.9424 166.828 29.5137 152.27M50.2144 178.103C40.6421 175.662 32.9432 166.827 29.5137 152.27M50.2144 178.103C43.4403 174.063 38.097 166.154 35.4043 154.752C28.7356 126.499 40.5374 87.1389 61.6371 67.2797C71.8613 57.6448 82.4218 54.2795 91.3627 56.5724M29.5137 152.27C22.8237 124.038 34.6469 84.6984 55.7465 64.8186C57.2614 63.4092 58.7342 62.1466 60.2491 60.9902M29.5137 152.27C22.8237 124.038 34.6469 84.6984 55.7473 64.8186C57.2614 63.4092 58.7342 62.1466 60.2491 60.9902M60.2491 60.9902L60.2697 60.9688C71.3561 52.533 82.5899 51.3338 91.3627 56.5724M91.3627 56.5724H91.3834M91.3834 56.5724C92.0147 56.9301 92.604 57.3085 93.1719 57.7296M91.3834 56.5724C92.5826 56.8667 93.7184 57.2664 94.8335 57.7503M93.1719 57.7296H93.1925M93.1925 57.7296C93.5082 57.9604 93.8032 58.192 94.1181 58.4442M93.1925 57.7296C93.7184 57.7502 94.2022 57.8137 94.7074 57.8764M94.1181 58.4442L94.1395 58.4656M94.1181 58.4442C94.3076 58.2341 94.4972 58.0445 94.7074 57.8764M94.1181 58.4442C93.5922 58.9495 93.0878 59.4753 92.5826 60.0012M57.1987 180.796C57.1773 180.69 57.1567 180.606 57.1353 180.501M94.8335 57.7503L95.2126 57.3719C95.3593 57.2244 95.5068 57.0983 95.6544 56.9508C100.43 52.449 105.268 48.8942 110.065 46.2641M94.8335 57.7503C94.7914 57.7709 94.7494 57.8137 94.7074 57.8764M56.5674 177.345L56.546 177.324M56.546 177.324H56.5253M56.5253 177.324C52.3392 172.886 49.0572 166.511 47.122 158.349C40.4319 130.096 52.2551 90.7365 73.3547 70.8773C79.7712 64.8393 86.3557 61.2638 92.5826 60.0012M56.5253 177.324C55.9995 174.232 55.6204 171.055 55.3896 167.837V167.815M92.5826 60.0012C90.4578 62.1894 88.4171 64.503 86.4818 66.9434C86.4398 66.9434 86.4398 66.9648 86.4398 66.9648M55.3896 167.815C54.464 165.46 53.6225 162.914 52.9697 160.138C46.2805 131.905 58.1243 92.5663 79.2239 72.6865C81.6437 70.4356 84.0207 68.5423 86.4398 66.9648M55.3896 167.815C52.781 133.819 65.1712 93.3871 86.4398 66.9648M62.2898 196.847C36.4774 211.068 11.8214 198.677 3.70133 164.281C-5.95424 123.512 11.1068 66.6491 41.6097 37.9331C68.3898 12.71 96.9583 17.2332 110.065 46.2641M237.296 96.4581C234.688 85.4138 225.789 82.7425 217.521 90.5255C209.254 98.3093 204.626 113.709 207.256 124.774C209.864 135.819 218.762 138.49 227.03 130.706C235.276 122.902 239.905 107.502 237.296 96.4581Z" stroke="#1AD1B1" stroke-width="1.33333" stroke-linecap="round" stroke-linejoin="round"/>
</svg>
