<svg width="486" height="384" viewBox="0 0 486 384" fill="none" xmlns="http://www.w3.org/2000/svg">
<path d="M287.877 279.613C283.358 280.67 278.912 281.071 274.649 280.853C253.331 279.686 235.657 262.705 228.333 231.84C217.437 185.705 233.18 123.61 263.898 84.4004C267.98 79.1893 272.316 74.378 276.908 70.042C304.749 43.805 334.12 42.7114 353.143 63.1547V63.1918M287.877 279.613C287.658 278.738 287.476 277.864 287.294 276.989M287.877 279.613C287.987 280.196 288.095 280.743 288.241 281.325C304.931 351.984 361.815 369.039 414.654 319.224C467.493 269.445 497.047 170.946 480.32 100.361C466.254 40.8168 423.582 19.3527 378.869 43.9506M286.638 273.49C285.18 273.564 283.759 273.527 282.302 273.454M286.638 273.49C286.456 272.688 286.309 271.851 286.164 271.013L286.128 270.977M286.638 273.49C286.783 274.474 286.966 275.459 287.184 276.443M282.302 273.454C280.807 273.346 279.313 273.163 277.819 272.909M282.302 273.454C283.905 274.585 285.508 275.604 287.184 276.443M282.302 273.454C281.062 272.581 279.896 271.595 278.729 270.539M277.819 272.909C276.981 272.762 276.142 272.581 275.304 272.361M277.819 272.909C277.783 273.163 277.673 273.382 277.564 273.6M275.304 272.361C275.269 272.361 275.232 272.361 275.159 272.325M275.304 272.361C276.034 272.799 276.799 273.236 277.564 273.6M275.159 272.325C258.615 268.098 245.241 252.793 239.338 227.575C229.317 185.268 243.274 128.602 270.896 91.7616C275.196 86.0037 279.823 80.7198 284.78 76.0541C287.403 73.6498 289.954 71.4269 292.578 69.4594L292.614 69.4224C311.818 54.8098 331.278 52.6967 346.474 61.7699M275.159 272.325C263.462 265.328 254.206 251.626 249.541 231.84C239.993 191.39 252.311 137.785 277.527 100.98C282.811 93.255 288.642 86.2949 294.982 80.3186C312.693 63.6658 330.949 57.835 346.474 61.7699M346.474 61.7699H346.51M346.51 61.7699C347.603 62.3895 348.624 63.0819 349.608 63.8101M346.51 61.7699C348.587 62.3167 350.554 63.0091 352.486 63.8472M349.608 63.8101H349.644M349.608 63.8101C335.76 62.9363 320.236 69.2767 305.149 83.4167C296.914 91.1777 289.48 100.653 283.03 111.257M349.644 63.8101C350.19 64.2113 350.7 64.6124 351.247 65.0493M349.644 63.8101C350.554 63.8472 351.393 63.92 352.268 64.0656M351.247 65.0493V65.0136M351.247 65.0493H351.284M351.247 65.0493H351.283C351.612 64.6852 351.939 64.3569 352.268 64.0656M351.247 65.0493C350.336 65.9245 349.461 66.8354 348.587 67.7462M287.294 276.989C283.905 276.333 280.661 275.24 277.564 273.6M287.294 276.989C287.257 276.807 287.221 276.625 287.184 276.443M352.486 63.8472L353.141 63.1918C353.397 62.9363 353.653 62.7178 353.908 62.4623C362.18 54.6641 370.561 48.5064 378.869 43.9506M352.486 63.8472C352.413 63.8842 352.34 63.9571 352.268 64.0656M278.729 270.539C270.166 262.814 263.424 250.861 259.671 234.936C250.708 197.038 260.947 147.625 283.03 111.257M278.729 270.539C270.166 262.814 263.424 250.861 259.672 234.936C250.708 197.038 260.947 147.625 283.03 111.257M286.128 270.977C284.269 269.046 282.557 266.858 280.917 264.49C276.142 257.493 272.353 248.675 269.839 238.107C261.603 203.343 269.546 158.848 287.95 123.684C295.456 109.325 304.712 96.5345 315.28 86.5862C326.395 76.0912 337.801 69.8964 348.587 67.7462M286.128 270.977C285.253 265.583 284.597 260.081 284.196 254.469C281.9 225.135 286.128 193.03 295.456 162.566C304.858 131.846 319.47 102.766 337.946 79.8075M348.587 67.7462C344.906 71.4997 341.409 75.5086 338.019 79.7361M284.16 254.542C282.557 250.46 281.098 246.015 279.969 241.204C272.68 210.448 278.074 172.113 292.177 139.316C300.485 119.93 311.855 102.511 325.447 89.7201C329.601 85.821 333.756 82.5415 337.946 79.8075M337.946 79.8075C337.982 79.7718 337.982 79.7361 338.019 79.7361M337.946 79.8075C337.983 79.7718 337.983 79.7361 338.019 79.7361M296.076 304.794C282.776 312.118 269.656 315.362 257.448 314.742M257.448 314.742C232.45 313.466 211.132 296.158 199.435 264.49M257.448 314.742C248.229 329.939 237.552 343.567 225.709 354.718C179.355 398.41 129.833 390.612 107.166 340.251C103.997 333.254 101.337 325.42 99.2954 316.782C99.1498 316.2 99.0399 315.654 98.9313 315.07M199.435 264.49C197.577 259.461 195.937 254.105 194.589 248.384M199.435 264.49C186.425 273.6 173.416 268.17 169.334 250.861C164.78 231.73 172.797 205.019 187.118 191.537C188.247 190.442 189.414 189.495 190.58 188.694M199.435 264.49C197.577 259.461 195.938 254.105 194.589 248.384M194.589 248.384C190.216 229.908 189.012 209.574 190.58 188.693C193.604 147.552 207.306 104.37 228.551 69.4952M194.589 248.384C190.217 229.908 189.012 209.574 190.58 188.694M228.551 69.4952C237.771 54.3001 248.448 40.6712 260.291 29.5208C306.68 -14.1727 356.167 -6.33746 378.869 43.9506M228.551 69.4952C207.307 104.37 193.604 147.552 190.58 188.694M228.551 69.4952C216.343 68.8756 203.225 72.1193 189.925 79.4077M164.233 98.6846L164.196 98.6475C145.175 78.1685 115.804 79.2621 87.9623 105.499C48.8988 142.268 27.0335 215.077 39.3874 267.297C48.1692 304.356 71.9291 321.447 98.9313 315.07M98.9313 315.07C98.7129 314.197 98.5302 313.32 98.3488 312.446M97.6921 308.948C96.2344 309.057 94.8138 308.984 93.3919 308.911M97.6921 308.948C97.5107 308.109 97.3638 307.272 97.2181 306.433M97.6921 308.948C97.8377 309.968 98.0204 310.952 98.2389 311.937M93.3919 308.911C90.9876 308.766 88.6547 308.402 86.359 307.818M93.3919 308.911C94.9594 310.041 96.5628 311.062 98.2389 311.937M93.3919 308.911C83.0795 301.442 74.9901 288.468 70.7256 270.429C59.1383 221.49 79.6173 153.346 116.204 118.909C131.29 104.734 146.815 98.4291 160.662 99.2685M86.359 307.818C86.3232 307.818 86.2862 307.818 86.2504 307.782M86.359 307.818C90.1495 310.114 94.1571 311.644 98.3488 312.446M86.359 307.818C86.3232 307.818 86.2862 307.818 86.2491 307.782C69.6691 303.555 56.3315 288.251 50.3922 263.033M86.2504 307.782C69.6691 303.555 56.3328 288.25 50.3922 263.033M86.2504 307.782C74.5161 300.785 65.2603 287.083 60.596 267.332C49.0444 218.392 69.4877 150.212 106.037 115.811C123.748 99.1215 142.041 93.2921 157.529 97.264M50.3922 263.033C38.8036 214.129 59.2839 145.984 95.8332 111.548C98.4573 109.107 101.009 106.92 103.633 104.917M50.3922 263.033C38.8036 214.13 59.2839 145.984 95.8346 111.548C98.4574 109.107 101.009 106.92 103.633 104.917M103.633 104.917L103.668 104.879C122.873 90.2669 142.332 88.1896 157.529 97.264M157.529 97.264H157.564M157.564 97.264C158.658 97.8836 159.679 98.539 160.662 99.2685M157.564 97.264C159.642 97.7737 161.609 98.4662 163.541 99.3042M160.662 99.2685H160.698M160.698 99.2685C161.245 99.6683 161.756 100.069 162.301 100.506M160.698 99.2685C161.609 99.3042 162.447 99.4141 163.322 99.5227M162.301 100.506L162.339 100.543M162.301 100.506C162.63 100.142 162.958 99.8139 163.322 99.5227M162.301 100.506C161.391 101.382 160.517 102.292 159.642 103.203M98.3488 312.446C98.3117 312.264 98.276 312.118 98.2389 311.937M163.541 99.3042L164.197 98.6489C164.452 98.3933 164.707 98.1749 164.963 97.9194C173.235 90.1212 181.615 83.9635 189.925 79.4077M163.541 99.3042C163.468 99.34 163.395 99.4141 163.322 99.5227M97.2552 306.47L97.2181 306.433M97.2181 306.433H97.1824M97.1824 306.433C89.931 298.745 84.2459 287.703 80.8937 273.564C69.305 224.624 89.7854 156.444 126.335 122.043C137.449 111.584 148.855 105.39 159.642 103.203M97.1824 306.433C96.2715 301.076 95.6148 295.574 95.215 289.999V289.962M159.642 103.203C155.961 106.994 152.426 111.001 149.074 115.229C149.001 115.229 149.001 115.266 149.001 115.266M95.215 289.962C93.6116 285.881 92.154 281.471 91.0233 276.662C79.436 227.758 99.9521 159.613 136.501 125.177C140.693 121.278 144.811 117.999 149.001 115.266M95.215 289.962C90.6963 231.072 112.159 161.035 149.001 115.266M107.168 340.251C62.4548 364.885 19.7451 343.42 5.67931 283.84C-11.0463 213.218 18.5072 114.719 71.3452 64.9765C117.734 21.2844 167.221 29.1196 189.925 79.4077M410.318 166.355C405.799 147.224 390.385 142.596 376.063 156.078C361.742 169.562 353.725 196.237 358.281 215.404C362.8 234.536 378.213 239.164 392.535 225.68C406.819 212.161 414.837 185.486 410.318 166.355Z" stroke="#1AD1B1" stroke-width="1.33333" stroke-linecap="round" stroke-linejoin="round"/>
</svg>
