<svg width="359" height="199" viewBox="0 0 359 199" fill="none" xmlns="http://www.w3.org/2000/svg">
<path opacity="0.3" d="M68.1582 79.9556C39.7472 78.1617 1.29688 106.277 1.29688 106.277V198.403H357.593V79.9556C357.593 79.9556 330.214 96.4591 311.533 93.6536C281.716 89.1753 298.579 42.7024 269.634 34.8328C248.667 29.1325 235.052 51.9716 214.659 44.7705C194.139 37.5248 201.129 12.7499 181.674 3.40796C137.674 -17.7198 173.838 107.158 124.025 106.277C99.4258 105.842 92.7018 81.5053 68.1582 79.9556Z" fill="url(#paint0_linear_1_3)"/>
<path d="M1.29688 105.874C1.29688 105.874 39.7472 77.7586 68.1582 79.5526C92.7018 81.1023 99.4258 105.439 124.025 105.874C173.838 106.755 137.674 -18.1228 181.674 3.00494C201.129 12.3468 194.139 37.1218 214.659 44.3675C235.052 51.5686 248.667 28.7295 269.634 34.4298C298.579 42.2994 281.716 88.7723 311.533 93.2506C330.214 96.0561 357.593 79.5526 357.593 79.5526" stroke="#8B52FC" stroke-linecap="round"/>
<defs>
<linearGradient id="paint0_linear_1_3" x1="179.445" y1="1" x2="179.445" y2="198.403" gradientUnits="userSpaceOnUse">
<stop stop-color="#8B52FC"/>
<stop offset="0.45" stop-color="#8B52FC" stop-opacity="0"/>
</linearGradient>
</defs>
</svg>
