<svg width="139" height="45" viewBox="0 0 139 45" fill="none" xmlns="http://www.w3.org/2000/svg">
<g clip-path="url(#clip0_3641_8796)">
<path d="M19.7025 0L16.4688 10.1382L21.8913 27.1727L27.5163 24.5861L19.7025 0Z" fill="black"/>
<path d="M26.0688 44.4139L21.1175 28.8971L2.18875 37.5177L0 44.4139H5.625H26.0688Z" fill="black"/>
<path d="M20.7467 27.6895L15.8305 12.2067L12.7455 21.9416L12.7317 21.9315L9.27172 32.9029L9.26172 32.9307L20.7467 27.6895Z" fill="black"/>
<path d="M46.3573 30.808H46.2048L39.4298 17.7933H33.791V44.4328H38.521V25.3122H38.6735L40.7173 29.5475L46.1298 39.6239L51.5423 29.5475L53.586 25.3122H53.7373V44.4328H58.4685V17.7933H53.056L46.3573 30.808Z" fill="black"/>
<path d="M77.4318 30.121C77.0018 28.8492 76.3905 27.7613 75.5955 26.8576C74.8005 25.9538 73.8355 25.2618 72.7005 24.7777C71.5643 24.295 70.2905 24.0529 68.878 24.0529C67.4655 24.0529 66.1968 24.295 65.0743 24.7777C63.9505 25.2618 62.9918 25.955 62.1968 26.8576C61.4018 27.7613 60.7893 28.8492 60.3605 30.121C59.9318 31.3941 59.7168 32.8311 59.7168 34.4332C59.7168 36.0353 59.9318 37.4811 60.3605 38.7655C60.7893 40.0513 61.4018 41.1504 62.1968 42.0668C62.9918 42.9819 63.9505 43.6828 65.0743 44.1655C66.1968 44.6483 67.4643 44.8916 68.878 44.8916C70.2918 44.8916 71.5655 44.6483 72.7005 44.1655C73.8368 43.6828 74.8005 42.9832 75.5955 42.0668C76.3905 41.1504 77.0018 40.05 77.4318 38.7655C77.8605 37.4798 78.0755 36.0353 78.0755 34.4332C78.0755 32.8311 77.8605 31.3929 77.4318 30.121ZM73.003 36.3038C73.003 37.8303 72.6368 38.9887 71.9055 39.7777C71.173 40.5668 70.1643 40.9601 68.878 40.9601C67.5918 40.9601 66.6193 40.5655 65.888 39.7777C65.1555 38.9887 64.7905 37.8315 64.7905 36.3038V32.6029C64.7905 31.1004 65.1555 29.9559 65.888 29.1681C66.6193 28.379 67.6155 27.9845 68.878 27.9845C70.1405 27.9845 71.1743 28.3803 71.9055 29.1681C72.6368 29.9571 73.003 31.1017 73.003 32.6029V36.3038Z" fill="black"/>
<path d="M87.9891 32.4882L85.9828 32.221C85.0491 32.0685 84.3866 31.8202 83.9953 31.4761C83.6041 31.1319 83.4091 30.6303 83.4091 29.9685C83.4091 29.3584 83.6416 28.8618 84.1091 28.4798C84.5753 28.0979 85.3391 27.9063 86.3991 27.9063C87.3578 27.9063 88.2416 28.1105 89.0491 28.5176C89.8566 28.9261 90.5503 29.4328 91.1303 30.0441L93.9691 27.1815C93.4891 26.6987 92.9966 26.2588 92.4928 25.8655C91.9878 25.471 91.4328 25.1395 90.8278 24.8723C90.2228 24.605 89.5466 24.4021 88.8028 24.2622C88.0591 24.1223 87.2066 24.0517 86.2478 24.0517C85.1128 24.0517 84.0841 24.1979 83.1628 24.4903C82.2416 24.7828 81.4528 25.2025 80.7978 25.7496C80.1416 26.2966 79.6366 26.9584 79.2841 27.7349C78.9303 28.5113 78.7541 29.3811 78.7541 30.3492C78.7541 32.1819 79.3153 33.5748 80.4378 34.5277C81.5603 35.4832 83.1941 36.0996 85.3391 36.3794L87.3066 36.6466C88.1891 36.7752 88.8141 37.0097 89.1803 37.3538C89.5453 37.6966 89.7291 38.1618 89.7291 38.7466C89.7291 39.4588 89.4703 40.0197 88.9528 40.4256C88.4353 40.8328 87.5966 41.0357 86.4353 41.0357C85.2741 41.0357 84.2966 40.7937 83.4266 40.3109C82.5566 39.8282 81.7541 39.1651 81.0228 38.3256L78.0703 41.2261C79.0541 42.3719 80.1891 43.2681 81.4766 43.9172C82.7641 44.5651 84.3541 44.8903 86.2453 44.8903C87.4816 44.8903 88.5978 44.7303 89.5953 44.4126C90.5916 44.095 91.4428 43.65 92.1503 43.0765C92.8566 42.5029 93.4053 41.8172 93.7966 41.0156C94.1878 40.2151 94.3828 39.3303 94.3828 38.3634C94.3828 35.0559 92.2503 33.0958 87.9866 32.4857L87.9891 32.4882Z" fill="black"/>
<path d="M112.1 31.1357C112.1 28.8504 111.405 27.0996 110.018 25.8807C108.63 24.6618 106.598 24.0529 103.924 24.0529C101.93 24.0529 100.328 24.4059 99.1178 25.1092C97.9066 25.8126 96.9353 26.7403 96.2028 27.8924L99.0803 30.5029C99.5591 29.816 100.145 29.2248 100.84 28.7282C101.534 28.2315 102.449 27.9832 103.584 27.9832C104.872 27.9832 105.804 28.2882 106.385 28.8996C106.965 29.5097 107.255 30.3756 107.255 31.495V32.9458H103.887C101.187 32.9458 99.1041 33.4462 97.6416 34.4483C96.1778 35.4504 95.4453 36.9794 95.4453 39.0328C95.4453 40.8088 95.9878 42.2294 97.0728 43.2945C98.1578 44.3597 99.7091 44.8916 101.728 44.8916C103.217 44.8916 104.465 44.5664 105.475 43.9185C106.484 43.2693 107.153 42.2962 107.482 40.9979H107.709C107.86 42.0416 108.245 42.8748 108.864 43.4987C109.482 44.1227 110.322 44.4328 111.38 44.4328H114.068V40.5025H112.1V31.1345V31.1357ZM107.255 38.4983C107.255 39.4336 106.877 40.142 106.119 40.621C105.362 41.1013 104.44 41.3408 103.355 41.3408C102.397 41.3408 101.658 41.1454 101.142 40.7534C100.624 40.3626 100.365 39.7613 100.365 38.9521V38.308C100.365 36.6908 101.627 35.8828 104.15 35.8828H107.254V38.4971L107.255 38.4983Z" fill="black"/>
<path d="M117.854 15.9605C116.844 15.9605 116.119 16.1899 115.678 16.6475C115.237 17.1063 115.016 17.6912 115.016 18.4034V19.1672C115.016 19.8794 115.236 20.4643 115.678 20.9231C116.119 21.3807 116.846 21.6101 117.854 21.6101C118.863 21.6101 119.557 21.3807 120.012 20.9231C120.466 20.4643 120.693 19.8794 120.693 19.1672V18.4034C120.693 17.6912 120.466 17.1063 120.012 16.6475C119.557 16.1899 118.838 15.9605 117.854 15.9605Z" fill="black"/>
<path d="M120.277 24.5105H115.432V44.4328H120.277V24.5105Z" fill="black"/>
<path d="M135.263 37.8303C134.909 38.7214 134.417 39.4664 133.787 40.0639C133.155 40.6613 132.259 40.9601 131.099 40.9601C129.737 40.9601 128.72 40.534 128.053 39.6819C127.384 38.8298 127.049 37.7042 127.049 36.3038V32.6773C127.049 31.2782 127.383 30.1462 128.053 29.2815C128.72 28.4168 129.737 27.9832 131.099 27.9832C132.159 27.9832 132.998 28.2567 133.617 28.8038C134.234 29.3508 134.657 30.0441 134.884 30.8836L138.858 29.0899C138.278 27.513 137.338 26.2777 136.038 25.3878C134.738 24.4966 133.092 24.0517 131.098 24.0517C129.634 24.0517 128.334 24.2937 127.199 24.7765C126.063 25.2605 125.11 25.9538 124.342 26.8563C123.572 27.7601 122.985 28.8479 122.582 30.1197C122.178 31.3929 121.977 32.8298 121.977 34.4319C121.977 36.034 122.178 37.4798 122.582 38.7643C122.985 40.05 123.572 41.1492 124.342 42.0655C125.112 42.9807 126.064 43.6815 127.199 44.1643C128.334 44.6471 129.634 44.8903 131.098 44.8903C133.015 44.8903 134.643 44.4517 135.98 43.5744C137.317 42.6958 138.314 41.3798 138.97 39.624L135.262 37.8303H135.263Z" fill="black"/>
</g>
<defs>
<clipPath id="clip0_3641_8796">
<rect width="139" height="45" fill="white"/>
</clipPath>
</defs>
</svg>
