<svg width="405" height="537" viewBox="0 0 405 537" fill="none" xmlns="http://www.w3.org/2000/svg">
<g filter="url(#filter0_d_0_3)">
<path d="M119.406 307.039L185.655 345.283V286.379M119.406 307.039L157.667 270.219L195.931 292.312M119.406 307.039V483.768L195.932 527.951M195.931 292.312L195.932 527.951M195.931 292.312L119.406 248.129V189.219M195.931 292.312L195.932 233.403M195.932 527.951V233.403M195.932 527.951L400 410.13V115.583M119.406 189.219L195.932 233.403M119.406 189.219L323.475 71.4012L400 115.583M195.932 233.403L400 115.583M5 236.97L71.249 275.213V216.31M5 236.97L43.2611 200.151L81.5248 222.242M5 236.97V413.699L81.5261 457.882L81.5248 222.242M81.5248 222.242L5 178.06V119.151M81.5248 222.242L81.5261 163.333M5 119.151L81.5261 163.333M5 119.151L209.069 1.33119L285.594 45.5132L81.5261 163.333M285.592 93.2652V45.5093L81.5313 163.334V222.241V457.879L119.41 436.011M155.965 490.864C159.278 492.777 161.988 491.212 161.988 487.387C161.988 483.564 159.278 478.869 155.965 476.956C152.653 475.044 149.944 476.61 149.944 480.433C149.944 484.258 152.653 488.952 155.965 490.864ZM132.057 335.479V418.84C132.057 419.593 132.459 420.287 133.111 420.664L180.123 447.788C181.527 448.597 183.281 447.585 183.281 445.963V362.602C183.281 361.85 182.879 361.155 182.228 360.779L135.215 333.655C133.81 332.845 132.057 333.859 132.057 335.479ZM41.5595 420.795C44.8723 422.708 47.5825 421.143 47.5825 417.318C47.5825 413.494 44.8723 408.8 41.5595 406.887C38.2467 404.975 35.5378 406.54 35.5378 410.364C35.5378 414.189 38.2467 418.883 41.5595 420.795ZM17.6511 265.409V348.772C17.6511 349.523 18.0533 350.219 18.705 350.595L65.7174 377.718C67.1216 378.528 68.875 377.515 68.875 375.895V292.533C68.875 291.781 68.4729 291.085 67.8225 290.709L20.8087 263.586C19.4045 262.777 17.6511 263.789 17.6511 265.409Z" stroke="#1AD1B1" stroke-width="1.33333" stroke-linecap="round" stroke-linejoin="round"/>
</g>
<defs>
<filter id="filter0_d_0_3" x="0.333333" y="0.664536" width="404.333" height="535.953" filterUnits="userSpaceOnUse" color-interpolation-filters="sRGB">
<feFlood flood-opacity="0" result="BackgroundImageFix"/>
<feColorMatrix in="SourceAlpha" type="matrix" values="0 0 0 0 0 0 0 0 0 0 0 0 0 0 0 0 0 0 127 0" result="hardAlpha"/>
<feOffset dy="4"/>
<feGaussianBlur stdDeviation="2"/>
<feComposite in2="hardAlpha" operator="out"/>
<feColorMatrix type="matrix" values="0 0 0 0 0 0 0 0 0 0 0 0 0 0 0 0 0 0 0.25 0"/>
<feBlend mode="normal" in2="BackgroundImageFix" result="effect1_dropShadow_0_3"/>
<feBlend mode="normal" in="SourceGraphic" in2="effect1_dropShadow_0_3" result="shape"/>
</filter>
</defs>
</svg>
