<svg width="346" height="457" viewBox="0 0 346 457" fill="none" xmlns="http://www.w3.org/2000/svg">
<g filter="url(#filter0_d_3243_12557)">
<path d="M102.18 260.677L158.454 293.163V243.128M102.18 260.677L134.68 229.402L167.182 248.168M102.18 260.677V410.796L167.183 448.327M167.182 248.168L167.183 448.327M167.182 248.168L102.18 210.637V160.598M167.182 248.168L167.183 198.128M167.183 448.327V198.128M167.183 448.327L340.525 348.246V98.049M102.18 160.598L167.183 198.128M102.18 160.598L275.522 60.5195L340.525 98.049M167.183 198.128L340.525 98.049M5 201.159L61.2739 233.643V183.609M5 201.159L37.5001 169.883L70.0025 188.648M5 201.159V351.278L70.0036 388.808L70.0025 188.648M70.0025 188.648L5 151.119V101.079M70.0025 188.648L70.0036 138.609M5 101.079L70.0036 138.609M5 101.079L178.342 1.00002L243.345 38.5295L70.0036 138.609M243.343 79.0915V38.5262L70.008 138.61V188.647V388.805L102.183 370.23M133.234 416.824C136.048 418.448 138.351 417.119 138.351 413.87C138.351 410.623 136.048 406.634 133.234 405.01C130.42 403.386 128.119 404.716 128.119 407.963C128.119 411.212 130.42 415.199 133.234 416.824ZM112.926 284.835V355.645C112.926 356.284 113.268 356.874 113.821 357.193L153.755 380.233C154.948 380.921 156.437 380.061 156.437 378.684V307.874C156.437 307.235 156.095 306.645 155.543 306.326L115.608 283.286C114.415 282.598 112.926 283.459 112.926 284.835ZM36.0547 357.305C38.8687 358.93 41.1708 357.601 41.1708 354.352C41.1708 351.103 38.8687 347.116 36.0547 345.492C33.2407 343.867 30.9397 345.196 30.9397 348.445C30.9397 351.694 33.2407 355.681 36.0547 357.305ZM15.7462 225.316V296.126C15.7462 296.764 16.0878 297.355 16.6414 297.675L56.5752 320.714C57.768 321.403 59.2573 320.541 59.2573 319.165V248.356C59.2573 247.717 58.9157 247.126 58.3633 246.806L18.4284 223.767C17.2356 223.08 15.7462 223.94 15.7462 225.316Z" stroke="#1AD1B1" stroke-width="1.33333" stroke-linecap="round" stroke-linejoin="round"/>
</g>
<defs>
<filter id="filter0_d_3243_12557" x="0.332031" y="0.333252" width="344.859" height="456.66" filterUnits="userSpaceOnUse" color-interpolation-filters="sRGB">
<feFlood flood-opacity="0" result="BackgroundImageFix"/>
<feColorMatrix in="SourceAlpha" type="matrix" values="0 0 0 0 0 0 0 0 0 0 0 0 0 0 0 0 0 0 127 0" result="hardAlpha"/>
<feOffset dy="4"/>
<feGaussianBlur stdDeviation="2"/>
<feComposite in2="hardAlpha" operator="out"/>
<feColorMatrix type="matrix" values="0 0 0 0 0 0 0 0 0 0 0 0 0 0 0 0 0 0 0.25 0"/>
<feBlend mode="normal" in2="BackgroundImageFix" result="effect1_dropShadow_3243_12557"/>
<feBlend mode="normal" in="SourceGraphic" in2="effect1_dropShadow_3243_12557" result="shape"/>
</filter>
</defs>
</svg>
