<svg width="330" height="261" viewBox="0 0 330 261" fill="none" xmlns="http://www.w3.org/2000/svg">
<path d="M195.412 189.769C192.35 190.485 189.337 190.757 186.448 190.609C172.001 189.819 160.024 178.311 155.06 157.394C147.676 126.129 158.345 84.0476 179.163 57.4761C181.929 53.9446 184.867 50.6841 187.979 47.7456C206.847 29.9652 226.751 29.2241 239.642 43.0782V43.1034M195.412 189.769C195.264 189.176 195.14 188.584 195.018 187.991M195.412 189.769C195.487 190.164 195.56 190.535 195.659 190.929C206.97 238.814 245.519 250.372 281.328 216.613C317.136 182.879 337.164 116.127 325.828 68.2922C316.296 27.9401 287.378 13.3942 257.076 30.0639M194.573 185.62C193.585 185.67 192.622 185.645 191.634 185.595M194.573 185.62C194.45 185.076 194.35 184.509 194.251 183.941L194.227 183.917M194.573 185.62C194.671 186.286 194.795 186.954 194.943 187.62M191.634 185.595C190.621 185.522 189.609 185.398 188.596 185.226M191.634 185.595C192.721 186.362 193.807 187.052 194.943 187.62M191.634 185.595C190.794 185.003 190.004 184.336 189.213 183.62M188.596 185.226C188.028 185.126 187.46 185.003 186.892 184.854M188.596 185.226C188.572 185.398 188.497 185.546 188.424 185.694M186.892 184.854C186.868 184.854 186.843 184.854 186.794 184.83M186.892 184.854C187.387 185.151 187.905 185.447 188.424 185.694M186.794 184.83C175.582 181.965 166.519 171.593 162.518 154.504C155.727 125.833 165.186 87.4311 183.904 62.4647C186.819 58.5626 189.954 54.9818 193.314 51.82C195.091 50.1906 196.82 48.6841 198.598 47.3508L198.623 47.3257C211.637 37.423 224.824 35.991 235.123 42.1397M186.794 184.83C178.867 180.088 172.594 170.803 169.433 157.394C162.962 129.981 171.31 93.6543 188.399 68.7121C191.98 63.4768 195.931 58.76 200.228 54.7099C212.23 43.4246 224.602 39.4732 235.123 42.1397M235.123 42.1397H235.147M235.147 42.1397C235.888 42.5596 236.58 43.0289 237.247 43.5224M235.147 42.1397C236.555 42.5103 237.888 42.9795 239.197 43.5475M237.247 43.5224H237.271M237.247 43.5224C227.862 42.9302 217.342 47.227 207.118 56.8095C201.537 62.069 196.499 68.4905 192.128 75.6764M237.271 43.5224C237.641 43.7942 237.987 44.0661 238.357 44.3622M237.271 43.5224C237.888 43.5475 238.456 43.5968 239.049 43.6955M238.357 44.3622V44.3379M238.357 44.3622H238.383M238.357 44.3622H238.382C238.605 44.1154 238.827 43.8929 239.049 43.6955M238.357 44.3622C237.74 44.9552 237.147 45.5725 236.555 46.1898M195.018 187.991C192.721 187.546 190.522 186.806 188.424 185.694M195.018 187.991C194.992 187.867 194.968 187.744 194.943 187.62M239.197 43.5475L239.641 43.1034C239.815 42.9302 239.988 42.7821 240.161 42.609C245.767 37.3243 251.446 33.1513 257.076 30.0639M239.197 43.5475C239.148 43.5726 239.099 43.622 239.049 43.6955M189.213 183.62C183.41 178.384 178.841 170.284 176.298 159.492C170.223 133.809 177.163 100.322 192.128 75.6764M189.213 183.62C183.41 178.384 178.841 170.284 176.299 159.492C170.223 133.809 177.163 100.322 192.128 75.6764M194.227 183.917C192.967 182.608 191.807 181.125 190.696 179.52C187.46 174.778 184.892 168.803 183.188 161.641C177.607 138.082 182.99 107.928 195.462 84.0978C200.549 74.3674 206.822 65.6992 213.983 58.9574C221.515 51.8451 229.245 47.6469 236.555 46.1898M194.227 183.917C193.634 180.261 193.19 176.532 192.918 172.729C191.362 152.85 194.227 131.093 200.549 110.448C206.92 89.6293 216.823 69.9225 229.344 54.3636M236.555 46.1898C234.061 48.7335 231.69 51.4503 229.393 54.3152M192.894 172.778C191.807 170.012 190.819 167 190.053 163.74C185.114 142.897 188.769 116.918 198.327 94.6915C203.957 81.5542 211.662 69.7493 220.873 61.0812C223.689 58.4388 226.504 56.2164 229.344 54.3636M229.344 54.3636C229.368 54.3394 229.368 54.3152 229.393 54.3152M229.344 54.3636C229.369 54.3394 229.369 54.3152 229.393 54.3152M200.969 206.834C191.955 211.797 183.065 213.995 174.791 213.575M174.791 213.575C157.851 212.711 143.403 200.981 135.476 179.52M174.791 213.575C168.544 223.874 161.308 233.11 153.282 240.666C121.869 270.276 88.3081 264.991 72.9475 230.862C70.7995 226.121 68.997 220.812 67.6134 214.958C67.5147 214.563 67.4403 214.194 67.3667 213.798M135.476 179.52C134.218 176.112 133.106 172.482 132.193 168.605M135.476 179.52C126.66 185.694 117.844 182.014 115.078 170.284C111.991 157.319 117.424 139.217 127.129 130.081C127.895 129.339 128.685 128.697 129.476 128.155M135.476 179.52C134.218 176.112 133.107 172.482 132.193 168.605M132.193 168.605C129.229 156.085 128.413 142.305 129.476 128.154C131.525 100.273 140.81 71.009 155.208 47.3751M132.193 168.605C129.23 156.085 128.413 142.305 129.476 128.155M155.208 47.3751C161.457 37.0776 168.692 27.8415 176.718 20.285C208.155 -9.32545 241.692 -4.01565 257.076 30.0639M155.208 47.3751C140.811 71.009 131.525 100.273 129.476 128.155M155.208 47.3751C146.935 46.9552 138.045 49.1534 129.032 54.0926M111.621 67.1563L111.596 67.1312C98.7052 53.2528 78.801 53.994 59.9331 71.7744C33.4603 96.6923 18.6425 146.034 27.0146 181.422C32.9659 206.537 49.0676 218.119 67.3667 213.798M67.3667 213.798C67.2186 213.206 67.0948 212.612 66.9719 212.02M66.5269 209.649C65.539 209.723 64.5763 209.673 63.6127 209.624M66.5269 209.649C66.404 209.08 66.3044 208.513 66.2057 207.944M66.5269 209.649C66.6256 210.34 66.7494 211.007 66.8974 211.674M63.6127 209.624C61.9833 209.525 60.4024 209.279 58.8466 208.883M63.6127 209.624C64.675 210.389 65.7615 211.081 66.8974 211.674M63.6127 209.624C56.6241 204.562 51.142 195.77 48.2521 183.545C40.3995 150.38 54.2779 104.199 79.072 80.8624C89.2959 71.2558 99.8168 66.9832 109.201 67.552M58.8466 208.883C58.8224 208.883 58.7972 208.883 58.773 208.859M58.8466 208.883C61.4154 210.439 64.1313 211.476 66.9719 212.02M58.8466 208.883C58.8224 208.883 58.7972 208.883 58.7721 208.859C47.5361 205.994 38.4974 195.623 34.4724 178.533M58.773 208.859C47.5361 205.994 38.4983 195.622 34.4724 178.533M58.773 208.859C50.8208 204.117 44.5483 194.831 41.3873 181.447C33.559 148.28 47.4132 102.076 72.1821 78.7629C84.1844 67.4524 96.5814 63.5019 107.077 66.1936M34.4724 178.533C26.6189 145.391 40.4982 99.2108 65.2672 75.8738C67.0455 74.2193 68.7744 72.7371 70.5528 71.3796M34.4724 178.533C26.6189 145.392 40.4982 99.2108 65.2681 75.8738C67.0455 74.2193 68.7744 72.7371 70.5528 71.3796M70.5528 71.3796L70.577 71.3545C83.5913 61.4517 96.7788 60.044 107.077 66.1936M107.077 66.1936H107.101M107.101 66.1936C107.843 66.6135 108.534 67.0576 109.201 67.552M107.101 66.1936C108.509 66.539 109.843 67.0083 111.152 67.5762M109.201 67.552H109.225M109.225 67.552C109.596 67.823 109.942 68.0948 110.312 68.3909M109.225 67.552C109.843 67.5762 110.41 67.6507 111.004 67.7243M110.312 68.3909L110.337 68.416M110.312 68.3909C110.534 68.1442 110.757 67.9217 111.004 67.7243M110.312 68.3909C109.694 68.984 109.102 69.6013 108.509 70.2186M66.9719 212.02C66.9468 211.896 66.9226 211.797 66.8974 211.674M111.152 67.5762L111.597 67.1321C111.769 66.9589 111.942 66.8109 112.115 66.6377C117.721 61.353 123.401 57.18 129.032 54.0926M111.152 67.5762C111.102 67.6005 111.053 67.6507 111.004 67.7243M66.2308 207.97L66.2057 207.944M66.2057 207.944H66.1814M66.1814 207.944C61.2673 202.734 57.4146 195.251 55.1428 185.67C47.2893 152.504 61.1686 106.299 85.9376 82.9862C93.4698 75.898 101.199 71.7008 108.509 70.2186M66.1814 207.944C65.5641 204.314 65.1191 200.585 64.8482 196.807V196.782M108.509 70.2186C106.015 72.7874 103.619 75.5033 101.348 78.3681C101.298 78.3681 101.298 78.3932 101.298 78.3932M64.8482 196.782C63.7616 194.017 62.7738 191.028 62.0075 187.769C54.155 154.627 68.0584 108.447 92.8274 85.1099C95.668 82.4676 98.4584 80.2451 101.298 78.3932M64.8482 196.782C61.7859 156.873 76.3309 109.411 101.298 78.3932M72.9484 230.862C42.6471 247.556 13.7033 233.01 4.17111 192.633C-7.16362 144.774 12.8644 78.0227 48.672 44.3128C80.1092 14.7033 113.646 20.0131 129.032 54.0926M278.389 113.016C275.327 100.051 264.88 96.9148 255.175 106.051C245.47 115.189 240.037 133.266 243.124 146.255C246.187 159.221 256.632 162.357 266.338 153.22C276.018 144.058 281.451 125.981 278.389 113.016Z" stroke="#1AD1B1" stroke-width="1.33333" stroke-linecap="round" stroke-linejoin="round"/>
</svg>
