<svg width="884" height="800" viewBox="0 0 884 800" fill="none" xmlns="http://www.w3.org/2000/svg">
<path d="M385.755 113.136L4.43214 333.289C-0.144045 335.93 -0.144045 342.541 4.43214 345.182L126.835 415.852L152.386 401.1L185.563 420.252L160.013 435.004L421.982 586.253C424.107 587.477 426.72 587.477 428.847 586.253L879.565 326.029C884.143 323.383 884.143 316.777 879.565 314.137L486.703 87.316L485.027 86.3453" stroke="white" stroke-width="1.33333" stroke-linecap="round" stroke-linejoin="round"/>
<path d="M454.031 73.7139C454.024 73.7191 454.024 73.7139 454.024 73.7139" stroke="white" stroke-width="1.33333" stroke-linecap="round" stroke-linejoin="round"/>
<path d="M460.488 72.4182H460.481" stroke="white" stroke-width="1.33333" stroke-linecap="round" stroke-linejoin="round"/>
<path d="M362.216 137.893L36.9833 325.67L448.287 563.138L879.565 314.137" stroke="white" stroke-width="1.33333" stroke-linecap="round" stroke-linejoin="round"/>
<path d="M54.8829 374.31L4.43359 403.437C-0.142587 406.079 -0.142587 412.685 4.43359 415.328L126.836 485.996L152.387 471.246L185.561 490.4L160.012 505.15L421.979 656.398C424.104 657.625 426.722 657.625 428.847 656.398L879.566 396.173C884.144 393.531 884.144 386.925 879.566 384.283L829.117 355.156" stroke="white" stroke-width="1.33333" stroke-linecap="round" stroke-linejoin="round"/>
<path d="M64.5583 379.896L36.986 395.814L448.29 633.281L879.566 384.282" stroke="white" stroke-width="1.33333" stroke-linecap="round" stroke-linejoin="round"/>
<path d="M54.8829 444.652L4.43359 473.779C-0.142593 476.421 -0.142593 483.027 4.43359 485.669L126.836 556.338L152.387 541.587L185.561 560.742L160.012 575.492L421.979 726.74C424.104 727.967 426.722 727.967 428.847 726.74L879.566 466.517C884.144 463.874 884.144 457.267 879.566 454.624L829.117 425.497" stroke="white" stroke-width="1.33333" stroke-linecap="round" stroke-linejoin="round"/>
<path d="M64.5584 450.236L36.986 466.154L448.29 703.621L879.566 454.622" stroke="white" stroke-width="1.33333" stroke-linecap="round" stroke-linejoin="round"/>
<path d="M54.8829 515.386L4.43359 544.513C-0.142587 547.156 -0.142587 553.761 4.43359 556.404L126.836 627.072L152.387 612.322L185.561 631.476L160.012 646.226L421.979 797.475C424.104 798.701 426.722 798.701 428.847 797.475L879.566 537.25C884.144 534.607 884.144 528.002 879.566 525.359L829.117 496.232" stroke="white" stroke-width="1.33333" stroke-linecap="round" stroke-linejoin="round"/>
<path d="M64.5583 520.971L36.986 536.889L448.29 774.356L879.566 525.358" stroke="white" stroke-width="1.33333" stroke-linecap="round" stroke-linejoin="round"/>
<path d="M475.903 28.1621C475.903 33.7812 471.787 38.8515 465.194 42.4297C464.815 42.6367 464.428 42.8379 464.035 43.0312C464.379 42.7949 464.709 42.5508 465.03 42.2988C466.008 41.5371 466.873 40.7226 467.616 39.8652C469.547 37.6386 470.631 35.1289 470.631 32.4746C470.631 29.7285 469.469 27.1367 467.414 24.8554C462.594 19.5058 452.864 15.8534 441.643 15.8534C425.629 15.8534 412.651 23.2929 412.651 32.4746C412.651 35.1289 413.737 37.6386 415.668 39.8652C416.408 40.7226 417.276 41.5371 418.256 42.2988C418.574 42.5508 418.905 42.7949 419.246 43.0312C418.854 42.8379 418.467 42.6367 418.088 42.4297C411.494 38.8515 407.379 33.7812 407.379 28.1621C407.379 17.3124 422.719 8.51553 441.643 8.51553C456.303 8.51553 468.815 13.7968 473.705 21.2226C475.125 23.3828 475.903 25.7187 475.903 28.1621Z" stroke="white" stroke-width="1.33333" stroke-linecap="round" stroke-linejoin="round"/>
<path d="M402.178 50.1177C401.352 51.6783 400.91 53.3131 400.91 55.0006C400.91 57.3932 401.797 59.6861 403.422 61.8053C409.16 69.3033 424.106 74.6471 441.643 74.6471C463.571 74.6471 481.452 66.2877 482.336 55.815C482.36 55.5455 482.372 55.274 482.372 55.0006C482.372 53.3131 481.932 51.6783 481.106 50.1177" stroke="white" stroke-width="1.33333" stroke-linecap="round" stroke-linejoin="round"/>
<path d="M419.246 43.0344C418.903 42.7981 418.575 42.552 418.254 42.302C417.276 41.5383 416.407 40.7258 415.666 39.8664C413.735 37.6418 412.651 35.1321 412.651 32.4778C412.651 23.2961 425.629 15.8547 441.641 15.8547C452.862 15.8547 462.594 19.509 467.413 24.8566C469.469 27.1399 470.631 29.7317 470.631 32.4778C470.631 35.1321 469.545 37.6418 467.614 39.8664C466.874 40.7258 466.008 41.5383 465.028 42.302C464.709 42.552 464.377 42.7981 464.036 43.0344" stroke="white" stroke-width="1.33333" stroke-linecap="round" stroke-linejoin="round"/>
<path d="M418.255 42.3006C418.198 42.3414 418.144 42.3842 418.09 42.4309" stroke="white" stroke-width="1.33333" stroke-linecap="round" stroke-linejoin="round"/>
<path d="M465.192 42.4309C465.136 42.3842 465.081 42.3414 465.029 42.3006" stroke="white" stroke-width="1.33333" stroke-linecap="round" stroke-linejoin="round"/>
<path d="M441.643 47.8136C433.08 47.8136 425.254 46.0147 419.248 43.0343C418.905 42.7979 418.574 42.5538 418.256 42.3018C417.276 41.5401 416.408 40.7257 415.668 39.8682C413.737 37.6417 412.651 35.1319 412.651 32.4776C412.651 23.2959 425.631 15.8565 441.643 15.8565C452.864 15.8565 462.596 19.5088 467.414 24.8584C469.471 27.1397 470.633 29.7315 470.633 32.4776C470.633 35.1319 469.547 37.6417 467.616 39.8682C466.875 40.7257 466.01 41.5401 465.03 42.3018C464.711 42.5538 464.379 42.7979 464.035 43.0343C458.03 46.0147 450.205 47.8136 441.643 47.8136ZM483.635 15.4932C475.661 6.87403 459.848 1.00098 441.643 1.00098C415.406 1.00098 394.137 13.1963 394.137 28.2413C394.137 29.376 394.26 30.4952 394.496 31.5948C397.377 45.0558 417.389 55.4796 441.643 55.4796C456.106 55.4796 469.061 51.7726 477.772 45.9249C483.67 41.9679 487.625 37.0284 488.787 31.5948C489.022 30.4952 489.147 29.376 489.147 28.2413C489.147 23.6358 487.155 19.2979 483.635 15.4932Z" stroke="white" stroke-width="1.33333" stroke-linecap="round" stroke-linejoin="round"/>
<path d="M488.787 31.5932C489.022 32.6928 489.145 33.8119 489.145 34.9467C489.145 40.5619 486.184 45.7787 481.104 50.1166C477.932 52.8237 473.932 55.1889 469.313 57.0913C461.522 60.2983 451.965 62.187 441.641 62.187C431.317 62.187 421.76 60.2983 413.967 57.0913C409.348 55.1889 405.35 52.8237 402.178 50.1166C397.098 45.7787 394.137 40.5619 394.137 34.9467C394.137 33.8119 394.26 32.6928 394.494 31.5932" stroke="white" stroke-width="1.33333" stroke-linecap="round" stroke-linejoin="round"/>
<path d="M320.407 288.359C315.269 281.308 314.403 272.165 314.329 263.001C314.327 262.929 314.327 262.859 314.327 262.786C314.31 260.316 314.347 257.841 314.374 255.407C314.561 247.792 315.036 240.079 315.77 232.519C316.661 218.923 320.126 204.993 325.429 191.776C327.45 186.733 329.741 181.796 332.259 177.021C340.827 160.761 352.023 146.374 364.23 136.163C366.124 134.52 367.983 133.081 369.866 131.515C379.189 123.44 387.284 112.731 392.431 100.468C395.814 92.1552 398.126 83.1727 399.47 74.1844C400.011 70.5809 400.396 66.9774 400.628 63.4149C400.816 60.575 400.909 57.7605 400.909 54.9969" stroke="white" stroke-width="1.33333" stroke-linecap="round" stroke-linejoin="round"/>
<path d="M401.328 57.987C400.697 74.0593 398.476 91.2312 394.021 106.991C379.513 155.851 351.031 196.862 333.169 243.696C327.48 260.364 322.413 278.142 319.001 296.638C318.48 299.484 317.994 302.341 317.55 305.22C317.142 307.87 316.771 310.54 316.439 313.218C316.435 313.247 316.431 313.275 316.429 313.302C315.111 325.339 314.615 337.64 313.904 349.714C313.902 349.787 313.896 349.861 313.888 349.937C313.865 350.39 313.835 350.847 313.808 351.302C313.708 352.956 313.601 354.607 313.49 356.249C313.249 360.857 313.261 362.728 314.824 366.216C318.886 374.56 326.4 380.367 334.83 384.55C343.785 388.88 353.597 390.431 363.408 390.929C380.509 392.15 398.646 387.328 411.285 375.49C413.937 372.929 416.177 370.283 417.892 367.156C419.367 364.64 419.263 361.693 419.134 358.109C419.035 355.597 418.943 353.072 418.861 350.533L418.832 349.621C418.822 349.288 418.81 348.956 418.804 348.626C418.326 332.724 418.298 316.382 419.689 300.417C419.974 297.169 420.343 293.927 420.785 290.699C421.642 284.415 422.783 278.173 424.146 271.982C424.375 270.947 424.609 269.909 424.851 268.878C424.963 268.396 425.076 267.915 425.191 267.433C425.64 265.546 426.111 263.665 426.599 261.788C431.183 245.077 434.209 234.413 441.761 221.636" stroke="white" stroke-width="1.33333" stroke-linecap="round" stroke-linejoin="round"/>
<path d="M482.334 55.0613C482.34 69.9403 485.306 86.1649 491.127 100.468C496.271 112.731 504.367 123.442 513.689 131.517C515.572 133.081 517.431 134.52 519.324 136.163C544.519 157.237 565.4 196.083 567.785 232.519C568.519 240.079 568.994 247.792 569.184 255.407C569.305 266.931 569.713 279.351 563.148 288.359" stroke="white" stroke-width="1.33333" stroke-linecap="round" stroke-linejoin="round"/>
<path d="M482.229 57.9876C482.858 74.0599 485.081 91.2318 489.536 106.992C504.044 155.851 532.528 196.863 550.388 243.697C557.765 265.316 564.099 288.799 567.128 313.305C568.685 327.519 569.093 342.103 570.068 356.25C570.308 360.855 570.296 362.728 568.734 366.217C564.671 374.561 557.157 380.367 548.728 384.551C539.773 388.881 529.962 390.432 520.149 390.93C503.048 392.148 484.911 387.328 472.27 375.49C469.618 372.93 467.38 370.283 465.665 367.156C464.19 364.641 464.294 361.693 464.425 358.111C465.163 339.277 465.538 319.574 463.868 300.42C462.72 287.353 460.253 274.455 456.956 261.787C452.374 245.078 449.349 234.414 441.796 221.636" stroke="white" stroke-width="1.33333" stroke-linecap="round" stroke-linejoin="round"/>
<path d="M366.529 416.543C331.133 416.543 302.439 397.555 302.439 374.135C302.439 371.012 302.949 367.963 303.92 365.031V365.027C303.922 365.018 303.924 365.01 303.93 365C303.93 365 307.186 356.899 313.807 351.303C310.506 355.49 308.668 360.139 308.668 365.031C308.668 383.424 334.627 398.334 366.649 398.334C369.502 398.334 372.16 398.334 375.035 398.094" stroke="white" stroke-width="1.33333" stroke-linecap="round" stroke-linejoin="round"/>
<path d="M464.845 349.715C464.804 349.75 464.762 349.786 464.721 349.823" stroke="white" stroke-width="1.33333" stroke-linecap="round" stroke-linejoin="round"/>
<path d="M464.83 349.936C464.79 349.975 464.749 350.013 464.713 350.05" stroke="white" stroke-width="1.33333" stroke-linecap="round" stroke-linejoin="round"/>
<path d="M420.784 290.699V290.698" stroke="white" stroke-width="1.33333" stroke-linecap="round" stroke-linejoin="round"/>
<path d="M314.383 262.743C314.364 262.761 314.346 262.774 314.328 262.792C309.151 267.274 305.668 272.454 304.408 278.03C304.405 278.04 304.401 278.046 304.399 278.056V278.062C304.055 279.591 303.877 281.15 303.877 282.732C303.877 291.226 308.987 299.038 317.551 305.222" stroke="white" stroke-width="1.33333" stroke-linecap="round" stroke-linejoin="round"/>
<path d="M314.368 262.964C314.356 262.975 314.341 262.987 314.329 263.003C309.647 267.464 306.229 272.546 304.407 278.026C304.403 278.036 304.401 278.044 304.399 278.054V278.059C303.429 280.991 302.917 284.038 302.917 287.163C302.917 296.985 307.966 306.028 316.438 313.218" stroke="white" stroke-width="1.33333" stroke-linecap="round" stroke-linejoin="round"/>
<path d="M569.183 262.743C569.202 262.761 569.22 262.774 569.237 262.792C574.415 267.274 577.897 272.454 579.157 278.03C579.161 278.04 579.165 278.046 579.167 278.056V278.062C579.511 279.591 579.688 281.15 579.688 282.732C579.688 291.226 574.579 299.038 566.015 305.222" stroke="white" stroke-width="1.33333" stroke-linecap="round" stroke-linejoin="round"/>
<path d="M569.196 262.964C569.208 262.975 569.224 262.987 569.236 263.003C573.917 267.464 577.335 272.546 579.157 278.026C579.161 278.036 579.163 278.044 579.165 278.054V278.059C580.136 280.991 580.648 284.038 580.648 287.163C580.648 296.985 575.599 306.028 567.126 313.218" stroke="white" stroke-width="1.33333" stroke-linecap="round" stroke-linejoin="round"/>
<path d="M569.642 349.514C569.623 349.495 569.602 349.476 569.582 349.458" stroke="white" stroke-width="1.33333" stroke-linecap="round" stroke-linejoin="round"/>
<path d="M570.182 351.145C581.387 357.147 581.563 374.134 581.563 374.134C581.563 397.526 552.934 416.497 517.592 416.54" stroke="white" stroke-width="1.33333" stroke-linecap="round" stroke-linejoin="round"/>
<path d="M517.473 416.542H517.592C494.113 417.261 473.92 406.731 470.096 404.798C466.32 402.886 436.611 391.145 413.271 404.798C389.933 418.446 366.531 416.542 366.531 416.542" stroke="white" stroke-width="1.33333" stroke-linecap="round" stroke-linejoin="round"/>
<path d="M366.17 398.331C366.17 398.331 389.932 399.997 413.27 386.346C436.61 372.696 466.327 384.946 470.096 386.346L478.171 389.635C479.204 390.055 480.223 390.505 481.235 390.973C491.182 395.577 503.825 398.331 517.593 398.331C549.612 398.331 575.573 383.421 575.573 365.028C575.573 359.831 573.28 354.795 569.583 350.413" stroke="white" stroke-width="1.33333" stroke-linecap="round" stroke-linejoin="round"/>
<path d="M449.782 373.43C451.284 372.417 452.183 371.118 452.183 369.702C452.183 366.46 447.464 363.831 441.642 363.831C435.819 363.831 431.099 366.46 431.099 369.702C431.099 371.247 432.175 372.659 433.933 373.706" stroke="white" stroke-width="1.33333" stroke-linecap="round" stroke-linejoin="round"/>
<path d="M457.049 365.629C457.049 370.723 450.071 374.854 441.465 374.854C432.858 374.854 425.881 370.723 425.881 365.629C425.881 360.535 432.858 356.404 441.465 356.404C450.071 356.404 457.049 360.535 457.049 365.629Z" stroke="white" stroke-width="1.33333" stroke-linecap="round" stroke-linejoin="round"/>
<path d="M449.782 283.103C451.284 282.09 452.183 280.791 452.183 279.375C452.183 276.135 447.464 273.506 441.642 273.506C435.819 273.506 431.099 276.135 431.099 279.375C431.099 280.922 432.175 282.332 433.933 283.379" stroke="white" stroke-width="1.33333" stroke-linecap="round" stroke-linejoin="round"/>
<path d="M457.049 275.303C457.049 280.397 450.071 284.528 441.465 284.528C432.858 284.528 425.881 280.397 425.881 275.303C425.881 270.209 432.858 266.078 441.465 266.078C450.071 266.078 457.049 270.209 457.049 275.303Z" stroke="white" stroke-width="1.33333" stroke-linecap="round" stroke-linejoin="round"/>
<path d="M462.929 291.853C460.453 288.864 458.945 284.909 458.945 280.575C458.945 278.458 459.304 276.429 459.963 274.56" stroke="white" stroke-width="1.33333" stroke-linecap="round" stroke-linejoin="round"/>
<path d="M423.548 274.787C424.158 276.59 424.488 278.541 424.488 280.574C424.488 284.82 423.042 288.703 420.656 291.668" stroke="white" stroke-width="1.33333" stroke-linecap="round" stroke-linejoin="round"/>
<path d="M419.963 297.571C426.692 295.364 434.428 294.112 442.663 294.112C450.161 294.112 457.249 295.151 463.538 297.004" stroke="white" stroke-width="1.33333" stroke-linecap="round" stroke-linejoin="round"/>
<path d="M426.578 261.873C431.596 262.959 437.012 263.547 442.662 263.547C447.685 263.547 452.527 263.08 457.066 262.213" stroke="white" stroke-width="1.33333" stroke-linecap="round" stroke-linejoin="round"/>
<path d="M418.882 346.267C426.431 347.9 434.583 348.786 443.085 348.786C450.646 348.786 457.933 348.083 464.761 346.778" stroke="white" stroke-width="1.33333" stroke-linecap="round" stroke-linejoin="round"/>
<path d="M418.743 316.243C425.626 313.897 433.61 312.557 442.12 312.557C450.347 312.557 458.081 313.811 464.808 316.012" stroke="white" stroke-width="1.33333" stroke-linecap="round" stroke-linejoin="round"/>
</svg>
