<svg width="157" height="325" viewBox="0 0 157 325" fill="none" xmlns="http://www.w3.org/2000/svg">
<path d="M90.5858 73.8122C84.6543 77.2372 81 83.5657 81 90.4156V220.627L90.4118 215.194V193.458L99.8237 188.024V133.685L128.058 117.383V84.7807L137.47 79.3467V43.2885" stroke="#1AD1B1" stroke-width="1.33333" stroke-linecap="round" stroke-linejoin="round"/>
<path d="M90.5859 73.8123L134.92 48.1539C138.372 46.1614 138.372 41.1798 134.92 39.1874L69.9801 1.69351C68.3784 0.768857 66.4049 0.768857 64.8032 1.69351L15.2921 30.3411" stroke="#1AD1B1" stroke-width="1.33333" stroke-linecap="round" stroke-linejoin="round"/>
<path d="M15.2925 30.341C9.361 33.7659 5.70669 40.0953 5.70669 46.9444V177.156L81.0005 220.627" stroke="#1AD1B1" stroke-width="1.33333" stroke-linecap="round" stroke-linejoin="round"/>
<path d="M130.946 129.348V173.868L102.711 190.17V135.831L122.443 124.439L130.946 129.348Z" stroke="#1AD1B1" stroke-width="1.33333" stroke-linecap="round" stroke-linejoin="round"/>
<path d="M1 235.857C1 208.96 15.8237 195.511 33.941 205.971C52.0591 216.431 66.882 246.996 66.882 273.894C66.882 300.792 52.0591 314.24 33.941 303.78C15.8237 293.32 1 262.755 1 235.857Z" stroke="#1AD1B1" stroke-width="1.33333" stroke-linecap="round" stroke-linejoin="round"/>
<path d="M56.5888 227.278C56.5888 223.073 58.9064 220.969 61.7389 222.605C64.5722 224.241 66.8897 229.02 66.8897 233.226C66.8897 237.43 64.5722 239.534 61.7389 237.898C58.9064 236.262 56.5888 231.483 56.5888 227.278Z" stroke="#1AD1B1" stroke-width="1.33333" stroke-linecap="round" stroke-linejoin="round"/>
<path d="M1 195.219C1 191.013 3.31756 188.911 6.15004 190.547C8.98332 192.182 11.3009 196.961 11.3009 201.166C11.3009 205.371 8.98332 207.474 6.15004 205.839C3.31756 204.203 1 199.425 1 195.219Z" stroke="#1AD1B1" stroke-width="1.33333" stroke-linecap="round" stroke-linejoin="round"/>
<path d="M1 277.134C1 272.929 3.31756 270.826 6.15004 272.462C8.98332 274.097 11.3009 278.876 11.3009 283.082C11.3009 287.286 8.98332 289.39 6.15004 287.754C3.31756 286.119 1 281.34 1 277.134Z" stroke="#1AD1B1" stroke-width="1.33333" stroke-linecap="round" stroke-linejoin="round"/>
<path d="M56.5888 308.958C56.5888 304.752 58.9064 302.65 61.7389 304.285C64.5722 305.92 66.8897 310.7 66.8897 314.905C66.8897 319.11 64.5722 321.213 61.7389 319.577C58.9064 317.942 56.5888 313.163 56.5888 308.958Z" stroke="#1AD1B1" stroke-width="1.33333" stroke-linecap="round" stroke-linejoin="round"/>
<path d="M66.882 268.46V316.64C66.882 319.377 63.919 321.088 61.5484 319.719L6.80735 288.115C3.21315 286.04 1 282.205 1 278.056V193.781C1 190.746 4.28492 188.849 6.91413 190.366L59.6264 220.8C64.1159 223.392 66.882 228.183 66.882 233.367V268.46Z" stroke="#1AD1B1" stroke-width="1.33333" stroke-linecap="round" stroke-linejoin="round"/>
<path d="M65.1068 319.659L83.0691 309.288C84.7009 308.346 85.7062 306.604 85.7062 304.72V301.064" stroke="#1AD1B1" stroke-width="1.33333" stroke-linecap="round" stroke-linejoin="round"/>
<path d="M61.1219 222.05L61.3117 221.942L72.3189 215.615" stroke="#1AD1B1" stroke-width="1.33333" stroke-linecap="round" stroke-linejoin="round"/>
<path d="M85.7054 300.662V265.742V254.877V244.008V233.138V222.273V217.912" stroke="#1AD1B1" stroke-width="1.33333" stroke-linecap="round" stroke-linejoin="round"/>
<path d="M15.8003 182.987L3.36459 190.164L3.35905 190.166L3.35668 190.169L3.34323 190.177L3.33769 190.179L3.33453 190.183L2.64796 190.579" stroke="#1AD1B1" stroke-width="1.33333" stroke-linecap="round" stroke-linejoin="round"/>
<path d="M90.4132 195.105L95.1188 197.82L98.5753 199.816C102.26 201.944 104.53 205.876 104.53 210.131V211.404V222.273V233.139V244.008V254.876V290.817C104.53 293.418 103.142 295.821 100.891 297.119L85.7054 305.887" stroke="#1AD1B1" stroke-width="1.33333" stroke-linecap="round" stroke-linejoin="round"/>
<path d="M85.7067 222.273L104.53 211.405" stroke="#1AD1B1" stroke-width="1.33333" stroke-linecap="round" stroke-linejoin="round"/>
<path d="M95.1182 197.82L90.4127 200.538" stroke="#1AD1B1" stroke-width="1.33333" stroke-linecap="round" stroke-linejoin="round"/>
<path d="M85.7067 233.14L104.53 222.273" stroke="#1AD1B1" stroke-width="1.33333" stroke-linecap="round" stroke-linejoin="round"/>
<path d="M85.7067 244.008L104.53 233.14" stroke="#1AD1B1" stroke-width="1.33333" stroke-linecap="round" stroke-linejoin="round"/>
<path d="M85.7067 254.876L104.53 244.008" stroke="#1AD1B1" stroke-width="1.33333" stroke-linecap="round" stroke-linejoin="round"/>
<path d="M85.7067 265.743L104.53 254.875" stroke="#1AD1B1" stroke-width="1.33333" stroke-linecap="round" stroke-linejoin="round"/>
<path d="M85.7067 276.611L104.53 265.743" stroke="#1AD1B1" stroke-width="1.33333" stroke-linecap="round" stroke-linejoin="round"/>
<path d="M85.7067 287.479L104.53 276.611" stroke="#1AD1B1" stroke-width="1.33333" stroke-linecap="round" stroke-linejoin="round"/>
<path d="M85.7067 298.346L104.53 287.479" stroke="#1AD1B1" stroke-width="1.33333" stroke-linecap="round" stroke-linejoin="round"/>
<path d="M5.70669 155.421L81.0005 199.179L90.4123 193.458" stroke="#1AD1B1" stroke-width="1.33333" stroke-linecap="round" stroke-linejoin="round"/>
<path d="M21.5955 247.889C21.5955 237.808 27.1513 232.767 33.9418 236.687C40.7323 240.608 46.2882 252.064 46.2882 262.145C46.2882 272.226 40.7323 277.267 33.9418 273.346C27.1513 269.426 21.5955 257.97 21.5955 247.889Z" stroke="#1AD1B1" stroke-width="1.33333" stroke-linecap="round" stroke-linejoin="round"/>
<path d="M46.2876 262.145C46.2876 262.145 55.4977 263.026 64.9269 256.21" stroke="#1AD1B1" stroke-width="1.33333" stroke-linecap="round" stroke-linejoin="round"/>
<path d="M41.5131 244.943C41.5131 244.943 52.6477 241.325 54.6038 228.792" stroke="#1AD1B1" stroke-width="1.33333" stroke-linecap="round" stroke-linejoin="round"/>
<path d="M31.2177 235.357C31.2177 235.357 35.4677 224.306 31.2177 204.567" stroke="#1AD1B1" stroke-width="1.33333" stroke-linecap="round" stroke-linejoin="round"/>
<path d="M22.8089 240.689C22.8089 240.689 13.791 226.962 2.21029 223.45" stroke="#1AD1B1" stroke-width="1.33333" stroke-linecap="round" stroke-linejoin="round"/>
<path d="M22.8092 257.197C22.8092 257.197 13.0098 251.983 3.81394 257.197" stroke="#1AD1B1" stroke-width="1.33333" stroke-linecap="round" stroke-linejoin="round"/>
<path d="M37.3487 274.598C37.3487 274.598 34.5328 291.657 39.4392 306.376" stroke="#1AD1B1" stroke-width="1.33333" stroke-linecap="round" stroke-linejoin="round"/>
<path d="M27.4277 266.804C27.4277 266.804 16.2797 274.714 17.338 287.479" stroke="#1AD1B1" stroke-width="1.33333" stroke-linecap="round" stroke-linejoin="round"/>
<path d="M44.1565 271.177C44.1565 271.177 51.7981 289.113 62.8378 294.963" stroke="#1AD1B1" stroke-width="1.33333" stroke-linecap="round" stroke-linejoin="round"/>
<path d="M59.2008 228.786C59.2008 226.713 60.343 225.677 61.7391 226.483C63.1351 227.289 64.2773 229.644 64.2773 231.717C64.2773 233.79 63.1351 234.826 61.7391 234.02C60.343 233.214 59.2008 230.859 59.2008 228.786Z" stroke="#1AD1B1" stroke-width="1.33333" stroke-linecap="round" stroke-linejoin="round"/>
<path d="M59.2008 310.466C59.2008 308.393 60.343 307.356 61.7391 308.162C63.1351 308.968 64.2773 311.324 64.2773 313.397C64.2773 315.469 63.1351 316.506 61.7391 315.7C60.343 314.894 59.2008 312.539 59.2008 310.466Z" stroke="#1AD1B1" stroke-width="1.33333" stroke-linecap="round" stroke-linejoin="round"/>
<path d="M3.61196 196.727C3.61196 194.654 4.75413 193.618 6.15021 194.424C7.54628 195.23 8.68845 197.585 8.68845 199.659C8.68845 201.731 7.54628 202.767 6.15021 201.961C4.75413 201.155 3.61196 198.8 3.61196 196.727Z" stroke="#1AD1B1" stroke-width="1.33333" stroke-linecap="round" stroke-linejoin="round"/>
<path d="M3.57753 278.646C3.57753 276.573 4.7197 275.536 6.11577 276.342C7.51185 277.148 8.65401 279.504 8.65401 281.577C8.65401 283.649 7.51185 284.686 6.11577 283.88C4.7197 283.074 3.57753 280.718 3.57753 278.646Z" stroke="#1AD1B1" stroke-width="1.33333" stroke-linecap="round" stroke-linejoin="round"/>
<path d="M81.0002 242.363V304.614L71.5884 310.047" stroke="#1AD1B1" stroke-width="1.33333" stroke-linecap="round" stroke-linejoin="round"/>
<path d="M90.4112 215.193L99.8231 209.759V206.292L90.4112 211.734" stroke="#1AD1B1" stroke-width="1.33333" stroke-linecap="round" stroke-linejoin="round"/>
<path d="M99.8237 206.292L97.3962 204.874L90.4127 208.898" stroke="#1AD1B1" stroke-width="1.33333" stroke-linecap="round" stroke-linejoin="round"/>
<path d="M109.235 193.458L156.294 166.289V264.099L109.235 291.268V193.458Z" stroke="#1AD1B1" stroke-width="1.33333" stroke-linecap="round" stroke-linejoin="round"/>
<path d="M156.294 166.288L131.321 151.87" stroke="#1AD1B1" stroke-width="1.33333" stroke-linecap="round" stroke-linejoin="round"/>
<path d="M109.235 194.151L99.8236 188.024" stroke="#1AD1B1" stroke-width="1.33333" stroke-linecap="round" stroke-linejoin="round"/>
<path d="M109.235 291.268L104.53 288.551" stroke="#1AD1B1" stroke-width="1.33333" stroke-linecap="round" stroke-linejoin="round"/>
<path d="M71.4891 315.973V323.928L90.4108 313.003V303.73" stroke="#1AD1B1" stroke-width="1.33333" stroke-linecap="round" stroke-linejoin="round"/>
<path d="M71.4901 323.928L64.7264 319.909" stroke="#1AD1B1" stroke-width="1.33333" stroke-linecap="round" stroke-linejoin="round"/>
<path d="M49.0319 312.493L51.8161 320.979C52.1752 322.074 53.6702 322.211 54.2223 321.198L56.5896 316.857" stroke="#1AD1B1" stroke-width="1.33333" stroke-linecap="round" stroke-linejoin="round"/>
</svg>
