<svg width="394" height="623" viewBox="0 0 394 623" fill="none" xmlns="http://www.w3.org/2000/svg">
<path d="M332.674 67.8884C327.225 71.0351 323.868 76.8487 323.868 83.1408V202.76L332.515 197.77V177.802L341.16 172.809V122.891L367.098 107.916V77.965L375.745 72.9734V39.8484" stroke="white" stroke-width="1.33333" stroke-linecap="round" stroke-linejoin="round"/>
<path d="M332.674 67.8887L373.401 44.3179C376.573 42.4868 376.573 37.9104 373.401 36.0806L313.744 1.6373C312.273 0.787726 310.46 0.787726 308.989 1.6373L263.506 27.9547" stroke="white" stroke-width="1.33333" stroke-linecap="round" stroke-linejoin="round"/>
<path d="M263.504 27.9541C258.055 31.1008 254.698 36.9144 254.698 43.2065V162.825L323.866 202.761" stroke="white" stroke-width="1.33333" stroke-linecap="round" stroke-linejoin="round"/>
<path d="M369.751 118.907V159.806L343.812 174.782V124.863L361.939 114.396L369.751 118.907Z" stroke="white" stroke-width="1.33333" stroke-linecap="round" stroke-linejoin="round"/>
<path d="M250.376 216.751C250.376 192.042 263.994 179.688 280.637 189.296C297.281 198.906 310.899 226.985 310.899 251.694C310.899 276.404 297.281 288.759 280.637 279.15C263.994 269.54 250.376 241.462 250.376 216.751Z" stroke="white" stroke-width="1.33333" stroke-linecap="round" stroke-linejoin="round"/>
<path d="M301.442 208.87C301.442 205.007 303.572 203.076 306.174 204.577C308.776 206.081 310.905 210.471 310.905 214.333C310.905 218.198 308.776 220.129 306.174 218.627C303.572 217.124 301.442 212.735 301.442 208.87Z" stroke="white" stroke-width="1.33333" stroke-linecap="round" stroke-linejoin="round"/>
<path d="M250.376 179.42C250.376 175.557 252.505 173.625 255.108 175.127C257.71 176.629 259.838 181.02 259.838 184.883C259.838 188.747 257.71 190.677 255.108 189.176C252.505 187.674 250.376 183.284 250.376 179.42Z" stroke="white" stroke-width="1.33333" stroke-linecap="round" stroke-linejoin="round"/>
<path d="M250.376 254.671C250.376 250.807 252.505 248.875 255.108 250.378C257.71 251.88 259.838 256.271 259.838 260.134C259.838 263.997 257.71 265.928 255.108 264.427C252.505 262.923 250.376 258.534 250.376 254.671Z" stroke="white" stroke-width="1.33333" stroke-linecap="round" stroke-linejoin="round"/>
<path d="M301.442 283.906C301.442 280.043 303.572 278.111 306.174 279.612C308.776 281.115 310.905 285.506 310.905 289.369C310.905 293.233 308.776 295.163 306.174 293.662C303.572 292.159 301.442 287.77 301.442 283.906Z" stroke="white" stroke-width="1.33333" stroke-linecap="round" stroke-linejoin="round"/>
<path d="M310.898 246.702V290.963C310.898 293.477 308.176 295.05 305.998 293.792L255.71 264.758C252.409 262.852 250.375 259.33 250.375 255.517V178.099C250.375 175.31 253.394 173.568 255.808 174.962L304.232 202.919C308.357 205.3 310.898 209.702 310.898 214.464V246.702Z" stroke="white" stroke-width="1.33333" stroke-linecap="round" stroke-linejoin="round"/>
<path d="M309.267 293.735L325.767 284.209C327.267 283.343 328.191 281.744 328.191 280.012V276.653" stroke="white" stroke-width="1.33333" stroke-linecap="round" stroke-linejoin="round"/>
<path d="M305.606 204.067L305.781 203.968L315.893 198.156" stroke="white" stroke-width="1.33333" stroke-linecap="round" stroke-linejoin="round"/>
<path d="M328.19 276.285V244.206V234.224V224.24V214.254V204.272V200.266" stroke="white" stroke-width="1.33333" stroke-linecap="round" stroke-linejoin="round"/>
<path d="M263.971 168.183L252.548 174.775L252.542 174.777L252.541 174.78L252.527 174.787L252.523 174.79L252.52 174.792L251.889 175.157" stroke="white" stroke-width="1.33333" stroke-linecap="round" stroke-linejoin="round"/>
<path d="M332.514 179.314L336.836 181.808L340.012 183.642C343.397 185.597 345.482 189.209 345.482 193.118V194.288V204.272V214.254V224.238V234.223V267.239C345.482 269.63 344.208 271.838 342.14 273.03L328.19 281.084" stroke="white" stroke-width="1.33333" stroke-linecap="round" stroke-linejoin="round"/>
<path d="M328.191 204.271L345.483 194.288" stroke="white" stroke-width="1.33333" stroke-linecap="round" stroke-linejoin="round"/>
<path d="M336.838 181.809L332.516 184.305" stroke="white" stroke-width="1.33333" stroke-linecap="round" stroke-linejoin="round"/>
<path d="M328.191 214.255L345.483 204.271" stroke="white" stroke-width="1.33333" stroke-linecap="round" stroke-linejoin="round"/>
<path d="M328.191 224.239L345.483 214.256" stroke="white" stroke-width="1.33333" stroke-linecap="round" stroke-linejoin="round"/>
<path d="M328.191 234.223L345.483 224.239" stroke="white" stroke-width="1.33333" stroke-linecap="round" stroke-linejoin="round"/>
<path d="M328.191 244.207L345.483 234.223" stroke="white" stroke-width="1.33333" stroke-linecap="round" stroke-linejoin="round"/>
<path d="M328.191 254.19L345.483 244.207" stroke="white" stroke-width="1.33333" stroke-linecap="round" stroke-linejoin="round"/>
<path d="M328.191 264.174L345.483 254.189" stroke="white" stroke-width="1.33333" stroke-linecap="round" stroke-linejoin="round"/>
<path d="M328.191 274.158L345.483 264.175" stroke="white" stroke-width="1.33333" stroke-linecap="round" stroke-linejoin="round"/>
<path d="M254.698 142.859L323.866 183.057L332.513 177.801" stroke="white" stroke-width="1.33333" stroke-linecap="round" stroke-linejoin="round"/>
<path d="M269.296 227.805C269.296 218.543 274.4 213.913 280.637 217.515C286.875 221.115 291.98 231.64 291.98 240.9C291.98 250.161 286.875 254.793 280.637 251.191C274.4 247.589 269.296 237.065 269.296 227.805Z" stroke="white" stroke-width="1.33333" stroke-linecap="round" stroke-linejoin="round"/>
<path d="M291.978 240.9C291.978 240.9 300.438 241.71 309.102 235.448" stroke="white" stroke-width="1.33333" stroke-linecap="round" stroke-linejoin="round"/>
<path d="M287.593 225.099C287.593 225.099 297.822 221.775 299.619 210.261" stroke="white" stroke-width="1.33333" stroke-linecap="round" stroke-linejoin="round"/>
<path d="M278.136 216.292C278.136 216.292 282.04 206.14 278.136 188.006" stroke="white" stroke-width="1.33333" stroke-linecap="round" stroke-linejoin="round"/>
<path d="M270.41 221.19C270.41 221.19 262.126 208.58 251.487 205.354" stroke="white" stroke-width="1.33333" stroke-linecap="round" stroke-linejoin="round"/>
<path d="M270.41 236.355C270.41 236.355 261.408 231.565 252.959 236.355" stroke="white" stroke-width="1.33333" stroke-linecap="round" stroke-linejoin="round"/>
<path d="M283.767 252.341C283.767 252.341 281.18 268.012 285.688 281.533" stroke="white" stroke-width="1.33333" stroke-linecap="round" stroke-linejoin="round"/>
<path d="M274.653 245.181C274.653 245.181 264.413 252.448 265.385 264.174" stroke="white" stroke-width="1.33333" stroke-linecap="round" stroke-linejoin="round"/>
<path d="M290.021 249.199C290.021 249.199 297.04 265.675 307.182 271.05" stroke="white" stroke-width="1.33333" stroke-linecap="round" stroke-linejoin="round"/>
<path d="M303.843 210.256C303.843 208.352 304.891 207.399 306.174 208.14C307.457 208.881 308.507 211.045 308.507 212.949C308.507 214.853 307.457 215.805 306.174 215.064C304.891 214.323 303.843 212.16 303.843 210.256Z" stroke="white" stroke-width="1.33333" stroke-linecap="round" stroke-linejoin="round"/>
<path d="M303.843 285.291C303.843 283.387 304.891 282.434 306.174 283.175C307.457 283.916 308.507 286.08 308.507 287.983C308.507 289.888 307.457 290.839 306.174 290.1C304.891 289.359 303.843 287.195 303.843 285.291Z" stroke="white" stroke-width="1.33333" stroke-linecap="round" stroke-linejoin="round"/>
<path d="M252.774 180.805C252.774 178.901 253.823 177.948 255.106 178.689C256.389 179.43 257.439 181.594 257.439 183.497C257.439 185.402 256.389 186.353 255.106 185.614C253.823 184.873 252.774 182.709 252.774 180.805Z" stroke="white" stroke-width="1.33333" stroke-linecap="round" stroke-linejoin="round"/>
<path d="M252.742 256.059C252.742 254.155 253.791 253.203 255.074 253.944C256.356 254.685 257.406 256.847 257.406 258.751C257.406 260.656 256.356 261.608 255.074 260.868C253.791 260.127 252.742 257.963 252.742 256.059Z" stroke="white" stroke-width="1.33333" stroke-linecap="round" stroke-linejoin="round"/>
<path d="M323.866 222.728V279.915L315.221 284.906" stroke="white" stroke-width="1.33333" stroke-linecap="round" stroke-linejoin="round"/>
<path d="M332.513 197.769L341.16 192.777V189.591L332.513 194.591" stroke="white" stroke-width="1.33333" stroke-linecap="round" stroke-linejoin="round"/>
<path d="M341.16 189.592L338.931 188.288L332.515 191.986" stroke="white" stroke-width="1.33333" stroke-linecap="round" stroke-linejoin="round"/>
<path d="M349.807 177.801L393.037 152.842V242.696L349.807 267.654V177.801Z" stroke="white" stroke-width="1.33333" stroke-linecap="round" stroke-linejoin="round"/>
<path d="M393.036 152.842L370.095 139.596" stroke="white" stroke-width="1.33333" stroke-linecap="round" stroke-linejoin="round"/>
<path d="M349.805 178.438L341.16 172.81" stroke="white" stroke-width="1.33333" stroke-linecap="round" stroke-linejoin="round"/>
<path d="M349.805 267.655L345.482 265.16" stroke="white" stroke-width="1.33333" stroke-linecap="round" stroke-linejoin="round"/>
<path d="M315.131 290.351V297.657L332.514 287.622V279.103" stroke="white" stroke-width="1.33333" stroke-linecap="round" stroke-linejoin="round"/>
<path d="M315.13 297.658L308.917 293.965" stroke="white" stroke-width="1.33333" stroke-linecap="round" stroke-linejoin="round"/>
<path d="M294.499 287.153L297.056 294.948C297.388 295.955 298.761 296.08 299.268 295.15L301.442 291.162" stroke="white" stroke-width="1.33333" stroke-linecap="round" stroke-linejoin="round"/>
<path d="M298.139 295.78L159.042 377.465C146.364 384.911 146.334 403.229 158.985 410.717L199.949 434.961C212.174 442.196 212.657 459.714 200.848 467.612L-30 622" stroke="white" stroke-width="1.33333" stroke-linecap="round" stroke-linejoin="round"/>
</svg>
