<svg width="1064" height="928" viewBox="0 0 1064 928" fill="none" xmlns="http://www.w3.org/2000/svg">
<path d="M556.108 2.68765L1058.87 309.855C1064.38 313.221 1064.38 321.639 1058.87 325.007L516.161 656.581C513.604 658.142 510.451 658.142 507.894 656.581L192.461 463.863L223.227 445.066L183.281 420.662L152.517 439.456L5.13493 349.411C-0.37831 346.045 -0.37831 337.627 5.13493 334.259L547.84 2.68765C550.398 1.12596 553.55 1.12596 556.108 2.68765Z" stroke="#1AD1B1" stroke-width="1.33333" stroke-linecap="round" stroke-linejoin="round"/>
<path d="M563.623 7.27854L44.3289 324.548L539.572 627.123L1058.87 309.853" stroke="#1AD1B1" stroke-width="1.33333" stroke-linecap="round" stroke-linejoin="round"/>
<path d="M65.8775 386.525L5.13333 423.639C-0.377775 427.005 -0.377775 435.423 5.13333 438.791L152.515 528.834L183.281 510.039L223.226 534.444L192.461 553.24L507.892 745.958C510.452 747.522 513.602 747.522 516.16 745.958L1058.87 414.386C1064.38 411.018 1064.38 402.6 1058.87 399.232L998.121 362.119" stroke="#1AD1B1" stroke-width="1.33333" stroke-linecap="round" stroke-linejoin="round"/>
<path d="M77.5283 393.641L44.3289 413.925L539.572 716.5L1058.87 399.231" stroke="#1AD1B1" stroke-width="1.33333" stroke-linecap="round" stroke-linejoin="round"/>
<path d="M65.8775 476.153L5.13333 513.266C-0.377775 516.632 -0.377775 525.05 5.13333 528.418L152.515 618.461L183.281 599.667L223.226 624.071L192.461 642.868L507.892 835.586C510.452 837.149 513.602 837.149 516.16 835.586L1058.87 504.014C1064.38 500.646 1064.38 492.228 1058.87 488.859L998.121 451.746" stroke="#1AD1B1" stroke-width="1.33333" stroke-linecap="round" stroke-linejoin="round"/>
<path d="M77.5283 483.27L44.3289 503.554L539.572 806.129L1058.87 488.859" stroke="#1AD1B1" stroke-width="1.33333" stroke-linecap="round" stroke-linejoin="round"/>
<path d="M65.8775 566.282L5.13333 603.395C-0.377775 606.761 -0.377775 615.179 5.13333 618.548L152.515 708.59L183.281 689.796L223.226 714.2L192.461 732.997L507.892 925.715C510.452 927.279 513.602 927.279 516.16 925.715L1058.87 594.143C1064.38 590.775 1064.38 582.357 1058.87 578.989L998.121 541.875" stroke="#1AD1B1" stroke-width="1.33333" stroke-linecap="round" stroke-linejoin="round"/>
<path d="M77.5283 573.4L44.3289 593.683L539.572 896.258L1058.87 578.989" stroke="#1AD1B1" stroke-width="1.33333" stroke-linecap="round" stroke-linejoin="round"/>
</svg>
