<svg width="136" height="118" viewBox="0 0 136 118" fill="none" xmlns="http://www.w3.org/2000/svg">
<path d="M113.754 0.999917V116.296M11.3079 0.999917V116.296M104.287 0.999917V116.296M122.483 54.1184C122.483 55.1987 123.378 56.0746 124.482 56.0746C125.586 56.0746 126.48 55.1987 126.48 54.1184C126.48 53.0382 125.586 52.1626 124.482 52.1626C123.378 52.1626 122.483 53.0382 122.483 54.1184ZM117.225 24.2428V42.8168C117.225 43.3893 117.788 43.927 118.567 43.927H130.187C130.965 43.927 131.529 43.3893 131.529 42.8168V24.2428C131.529 23.6703 130.965 23.1326 130.187 23.1326H118.567C117.788 23.1326 117.225 23.6703 117.225 24.2428ZM125.334 0.999917C130.675 0.999917 135 5.26169 135 10.5246V106.772C135 112.034 130.675 116.296 125.334 116.296H10.6658C5.32491 116.296 1 112.034 1 106.772V10.5246C1 5.26169 5.32491 0.999917 10.6658 0.999917H125.349H125.334Z" stroke="#1AD1B1" stroke-width="1.5" stroke-linecap="round" stroke-linejoin="round"/>
</svg>
