<svg width="541" height="446" viewBox="0 0 541 446" fill="none" xmlns="http://www.w3.org/2000/svg">
<path d="M282.851 1.56175L538.123 148.943C540.921 150.558 540.921 154.597 538.123 156.213L262.569 315.304C261.27 316.054 259.669 316.054 258.371 315.304L98.2126 222.837L113.834 213.818L93.5515 202.109L77.9313 211.126L3.09948 167.922C0.300175 166.307 0.300175 162.268 3.09948 160.652L278.653 1.56175C279.952 0.81244 281.553 0.81244 282.851 1.56175Z" stroke="#1AD1B1" stroke-width="1.33333" stroke-linecap="round" stroke-linejoin="round"/>
<path d="M286.665 3.76532L22.9982 155.993L274.454 301.171L538.121 148.943" stroke="#1AD1B1" stroke-width="1.33333" stroke-linecap="round" stroke-linejoin="round"/>
<path d="M33.941 185.73L3.09866 203.537C0.300447 205.152 0.300447 209.191 3.09866 210.807L77.9305 254.011L93.5518 244.993L113.833 256.702L98.2129 265.721L258.37 358.188C259.67 358.939 261.269 358.939 262.568 358.188L538.122 199.098C540.92 197.482 540.92 193.443 538.122 191.827L507.28 174.02" stroke="#1AD1B1" stroke-width="1.33333" stroke-linecap="round" stroke-linejoin="round"/>
<path d="M39.8549 189.145L22.9982 198.877L274.454 344.055L538.121 191.827" stroke="#1AD1B1" stroke-width="1.33333" stroke-linecap="round" stroke-linejoin="round"/>
<path d="M33.941 228.734L3.09866 246.542C0.300447 248.157 0.300447 252.196 3.09866 253.812L77.9305 297.015L93.5518 287.997L113.833 299.707L98.2129 308.725L258.37 401.193C259.67 401.943 261.269 401.943 262.568 401.193L538.122 242.102C540.92 240.486 540.92 236.447 538.122 234.831L507.28 217.024" stroke="#1AD1B1" stroke-width="1.33333" stroke-linecap="round" stroke-linejoin="round"/>
<path d="M39.8549 232.149L22.9982 241.881L274.454 387.059L538.121 234.831" stroke="#1AD1B1" stroke-width="1.33333" stroke-linecap="round" stroke-linejoin="round"/>
<path d="M33.941 271.979L3.09866 289.786C0.300447 291.401 0.300447 295.44 3.09866 297.056L77.9305 340.26L93.5518 331.242L113.833 342.951L98.2129 351.97L258.37 444.437C259.67 445.188 261.269 445.188 262.568 444.437L538.122 285.347C540.92 283.731 540.92 279.692 538.122 278.076L507.28 260.268" stroke="#1AD1B1" stroke-width="1.33333" stroke-linecap="round" stroke-linejoin="round"/>
<path d="M39.8549 275.394L22.9982 285.126L274.454 430.304L538.121 278.076" stroke="#1AD1B1" stroke-width="1.33333" stroke-linecap="round" stroke-linejoin="round"/>
</svg>
