<svg width="244" height="201" viewBox="0 0 244 201" fill="none" xmlns="http://www.w3.org/2000/svg">
<path d="M127.325 1.25188L241.737 67.3077C242.992 68.0316 242.992 69.8419 241.737 70.5662L118.235 141.871C117.653 142.207 116.935 142.207 116.353 141.871L44.5705 100.427L51.572 96.3848L42.4814 91.1367L35.4805 95.1784L1.94098 75.8144C0.68634 75.0905 0.68634 73.2802 1.94098 72.5559L125.444 1.25188C126.026 0.916045 126.743 0.916045 127.325 1.25188Z" stroke="#1AD1B1" stroke-width="1.33333" stroke-linecap="round" stroke-linejoin="round"/>
<path d="M129.035 2.23885L10.8597 70.4672L123.562 135.536L241.737 67.3072" stroke="#1AD1B1" stroke-width="1.33333" stroke-linecap="round" stroke-linejoin="round"/>
<path d="M15.7641 83.7957L1.94062 91.7769C0.686461 92.5007 0.686461 94.311 1.94062 95.0354L35.4801 114.399L42.4815 110.357L51.5716 115.605L44.5707 119.648L116.353 161.091C116.935 161.428 117.652 161.428 118.234 161.091L241.737 89.7872C242.991 89.0629 242.991 87.2526 241.737 86.5283L227.914 78.5471" stroke="#1AD1B1" stroke-width="1.33333" stroke-linecap="round" stroke-linejoin="round"/>
<path d="M18.4148 85.3262L10.8597 89.6883L123.562 154.757L241.737 86.5282" stroke="#1AD1B1" stroke-width="1.33333" stroke-linecap="round" stroke-linejoin="round"/>
<path d="M15.7641 103.07L1.94062 111.051C0.686461 111.775 0.686461 113.585 1.94062 114.309L35.4801 133.673L42.4815 129.631L51.5716 134.879L44.5707 138.922L116.353 180.365C116.935 180.702 117.652 180.702 118.234 180.365L241.737 109.061C242.991 108.337 242.991 106.527 241.737 105.802L227.914 97.8211" stroke="#1AD1B1" stroke-width="1.33333" stroke-linecap="round" stroke-linejoin="round"/>
<path d="M18.4148 104.601L10.8597 108.963L123.562 174.031L241.737 105.803" stroke="#1AD1B1" stroke-width="1.33333" stroke-linecap="round" stroke-linejoin="round"/>
<path d="M15.7641 122.452L1.94062 130.433C0.686461 131.157 0.686461 132.968 1.94062 133.692L35.4801 153.055L42.4815 149.014L51.5716 154.262L44.5707 158.304L116.353 199.748C116.935 200.084 117.652 200.084 118.234 199.748L241.737 128.444C242.991 127.719 242.991 125.909 241.737 125.185L227.914 117.204" stroke="#1AD1B1" stroke-width="1.33333" stroke-linecap="round" stroke-linejoin="round"/>
<path d="M18.4148 123.983L10.8597 128.345L123.562 193.413L241.737 125.185" stroke="#1AD1B1" stroke-width="1.33333" stroke-linecap="round" stroke-linejoin="round"/>
</svg>
