<svg width="208" height="431" viewBox="0 0 208 431" fill="none" xmlns="http://www.w3.org/2000/svg">
<path d="M119.83 97.5941C111.961 102.138 107.114 110.533 107.114 119.62V292.361L119.599 285.153V256.318L132.085 249.11V177.023L169.542 155.396V112.145L182.028 104.936V57.1007" stroke="#1AD1B1" stroke-width="1.33333" stroke-linecap="round" stroke-linejoin="round"/>
<path d="M119.83 97.595L178.645 63.5561C183.224 60.9128 183.224 54.3042 178.645 51.6609L92.4945 1.92096C90.3696 0.694306 87.7515 0.694306 85.6267 1.92096L19.9443 39.9253" stroke="#1AD1B1" stroke-width="1.33333" stroke-linecap="round" stroke-linejoin="round"/>
<path d="M19.944 39.9244C12.0751 44.468 7.22727 52.8646 7.22727 61.9507V234.692L107.113 292.361" stroke="#1AD1B1" stroke-width="1.33333" stroke-linecap="round" stroke-linejoin="round"/>
<path d="M173.373 171.266V230.328L135.915 251.954V179.867L162.093 164.754L173.373 171.266Z" stroke="#1AD1B1" stroke-width="1.33333" stroke-linecap="round" stroke-linejoin="round"/>
<path d="M0.984378 312.562C0.984378 276.88 20.6497 259.038 44.6845 272.914C68.7202 286.791 88.3845 327.339 88.3845 363.023C88.3845 398.706 68.7202 416.547 44.6845 402.67C20.6497 388.793 0.984378 348.245 0.984378 312.562Z" stroke="#1AD1B1" stroke-width="1.33333" stroke-linecap="round" stroke-linejoin="round"/>
<path d="M74.7295 301.183C74.7295 295.603 77.804 292.813 81.5616 294.983C85.3203 297.153 88.3948 303.493 88.3948 309.072C88.3948 314.651 85.3203 317.441 81.5616 315.271C77.804 313.101 74.7295 306.761 74.7295 301.183Z" stroke="#1AD1B1" stroke-width="1.33333" stroke-linecap="round" stroke-linejoin="round"/>
<path d="M0.984378 258.653C0.984378 253.074 4.05889 250.285 7.81652 252.455C11.5752 254.624 14.6497 260.964 14.6497 266.543C14.6497 272.121 11.5752 274.911 7.81652 272.741C4.05889 270.571 0.984378 264.232 0.984378 258.653Z" stroke="#1AD1B1" stroke-width="1.33333" stroke-linecap="round" stroke-linejoin="round"/>
<path d="M0.984382 367.321C0.984382 361.742 4.0589 358.953 7.81652 361.123C11.5752 363.292 14.6497 369.632 14.6497 375.211C14.6497 380.789 11.5752 383.58 7.81652 381.41C4.0589 379.241 0.984382 372.901 0.984382 367.321Z" stroke="#1AD1B1" stroke-width="1.33333" stroke-linecap="round" stroke-linejoin="round"/>
<path d="M74.7296 409.543C74.7296 403.963 77.8041 401.174 81.5617 403.343C85.3204 405.513 88.3949 411.853 88.3949 417.432C88.3949 423.011 85.3204 425.801 81.5617 423.631C77.8041 421.461 74.7296 415.122 74.7296 409.543Z" stroke="#1AD1B1" stroke-width="1.33333" stroke-linecap="round" stroke-linejoin="round"/>
<path d="M88.385 355.817V419.733C88.385 423.364 84.4542 425.634 81.3094 423.819L8.68897 381.892C3.92084 379.138 0.984838 374.051 0.984838 368.546V256.746C0.984838 252.72 5.34267 250.204 8.83062 252.217L78.7596 292.59C84.7155 296.029 88.385 302.385 88.385 309.262V355.817Z" stroke="#1AD1B1" stroke-width="1.33333" stroke-linecap="round" stroke-linejoin="round"/>
<path d="M86.0283 423.738L109.857 409.98C112.022 408.73 113.356 406.42 113.356 403.92V399.069" stroke="#1AD1B1" stroke-width="1.33333" stroke-linecap="round" stroke-linejoin="round"/>
<path d="M80.7426 294.25L80.9944 294.106L95.5968 285.714" stroke="#1AD1B1" stroke-width="1.33333" stroke-linecap="round" stroke-linejoin="round"/>
<path d="M113.355 398.537V352.212V337.797V323.378V308.959V294.544V288.759" stroke="#1AD1B1" stroke-width="1.33333" stroke-linecap="round" stroke-linejoin="round"/>
<path d="M20.6182 242.425L4.1208 251.946L4.11345 251.949L4.1103 251.953L4.09246 251.963L4.08512 251.967L4.08092 251.971L3.17011 252.496" stroke="#1AD1B1" stroke-width="1.33333" stroke-linecap="round" stroke-linejoin="round"/>
<path d="M119.601 258.502L125.843 262.105L130.429 264.752C135.317 267.576 138.328 272.792 138.328 278.436V280.125V294.544V308.959V323.378V337.796V385.476C138.328 388.927 136.487 392.115 133.501 393.837L113.355 405.467" stroke="#1AD1B1" stroke-width="1.33333" stroke-linecap="round" stroke-linejoin="round"/>
<path d="M113.356 294.543L138.328 280.125" stroke="#1AD1B1" stroke-width="1.33333" stroke-linecap="round" stroke-linejoin="round"/>
<path d="M125.843 262.105L119.601 265.71" stroke="#1AD1B1" stroke-width="1.33333" stroke-linecap="round" stroke-linejoin="round"/>
<path d="M113.356 308.959L138.328 294.543" stroke="#1AD1B1" stroke-width="1.33333" stroke-linecap="round" stroke-linejoin="round"/>
<path d="M113.357 323.375L138.328 308.958" stroke="#1AD1B1" stroke-width="1.33333" stroke-linecap="round" stroke-linejoin="round"/>
<path d="M113.356 337.797L138.328 323.379" stroke="#1AD1B1" stroke-width="1.33333" stroke-linecap="round" stroke-linejoin="round"/>
<path d="M113.356 352.212L138.328 337.795" stroke="#1AD1B1" stroke-width="1.33333" stroke-linecap="round" stroke-linejoin="round"/>
<path d="M113.356 366.629L138.328 352.212" stroke="#1AD1B1" stroke-width="1.33333" stroke-linecap="round" stroke-linejoin="round"/>
<path d="M113.357 381.046L138.328 366.629" stroke="#1AD1B1" stroke-width="1.33333" stroke-linecap="round" stroke-linejoin="round"/>
<path d="M113.357 395.462L138.328 381.045" stroke="#1AD1B1" stroke-width="1.33333" stroke-linecap="round" stroke-linejoin="round"/>
<path d="M7.22725 205.855L107.113 263.906L119.599 256.316" stroke="#1AD1B1" stroke-width="1.33333" stroke-linecap="round" stroke-linejoin="round"/>
<path d="M28.3058 328.528C28.3058 315.155 35.6762 308.467 44.6846 313.668C53.6931 318.869 61.0635 334.067 61.0635 347.44C61.0635 360.815 53.6931 367.501 44.6846 362.301C35.6762 357.1 28.3058 341.902 28.3058 328.528Z" stroke="#1AD1B1" stroke-width="1.33333" stroke-linecap="round" stroke-linejoin="round"/>
<path d="M61.0632 347.438C61.0632 347.438 73.2815 348.607 85.7905 339.565" stroke="#1AD1B1" stroke-width="1.33333" stroke-linecap="round" stroke-linejoin="round"/>
<path d="M54.7292 324.617C54.7292 324.617 69.5005 319.818 72.0955 303.191" stroke="#1AD1B1" stroke-width="1.33333" stroke-linecap="round" stroke-linejoin="round"/>
<path d="M41.072 311.9C41.072 311.9 46.71 297.24 41.072 271.053" stroke="#1AD1B1" stroke-width="1.33333" stroke-linecap="round" stroke-linejoin="round"/>
<path d="M29.9158 318.975C29.9158 318.975 17.9525 300.764 2.58933 296.105" stroke="#1AD1B1" stroke-width="1.33333" stroke-linecap="round" stroke-linejoin="round"/>
<path d="M29.9158 340.874C29.9158 340.874 16.9157 333.958 4.71631 340.874" stroke="#1AD1B1" stroke-width="1.33333" stroke-linecap="round" stroke-linejoin="round"/>
<path d="M49.205 363.958C49.205 363.958 45.4694 386.588 51.9784 406.114" stroke="#1AD1B1" stroke-width="1.33333" stroke-linecap="round" stroke-linejoin="round"/>
<path d="M36.0428 353.618C36.0428 353.618 21.2537 364.112 22.6577 381.046" stroke="#1AD1B1" stroke-width="1.33333" stroke-linecap="round" stroke-linejoin="round"/>
<path d="M58.2357 359.422C58.2357 359.422 68.3732 383.217 83.0186 390.977" stroke="#1AD1B1" stroke-width="1.33333" stroke-linecap="round" stroke-linejoin="round"/>
<path d="M78.1947 303.185C78.1947 300.435 79.7099 299.06 81.5619 300.13C83.414 301.199 84.9292 304.324 84.9292 307.074C84.9292 309.823 83.414 311.198 81.5619 310.129C79.7099 309.059 78.1947 305.936 78.1947 303.185Z" stroke="#1AD1B1" stroke-width="1.33333" stroke-linecap="round" stroke-linejoin="round"/>
<path d="M78.1947 411.541C78.1947 408.792 79.7099 407.416 81.5619 408.485C83.414 409.554 84.9292 412.679 84.9292 415.43C84.9292 418.179 83.414 419.554 81.5619 418.485C79.7099 417.415 78.1947 414.291 78.1947 411.541Z" stroke="#1AD1B1" stroke-width="1.33333" stroke-linecap="round" stroke-linejoin="round"/>
<path d="M4.44946 260.653C4.44946 257.903 5.96468 256.528 7.81674 257.597C9.66879 258.667 11.184 261.792 11.184 264.542C11.184 267.291 9.66879 268.666 7.81674 267.596C5.96468 266.527 4.44946 263.402 4.44946 260.653Z" stroke="#1AD1B1" stroke-width="1.33333" stroke-linecap="round" stroke-linejoin="round"/>
<path d="M4.40225 369.328C4.40225 366.577 5.91747 365.203 7.76953 366.272C9.62158 367.341 11.1368 370.466 11.1368 373.216C11.1368 375.966 9.62158 377.34 7.76953 376.271C5.91747 375.202 4.40225 372.077 4.40225 369.328Z" stroke="#1AD1B1" stroke-width="1.33333" stroke-linecap="round" stroke-linejoin="round"/>
<path d="M107.113 321.196V403.78L94.6275 410.987" stroke="#1AD1B1" stroke-width="1.33333" stroke-linecap="round" stroke-linejoin="round"/>
<path d="M119.6 285.15L132.085 277.941V273.341L119.6 280.561" stroke="#1AD1B1" stroke-width="1.33333" stroke-linecap="round" stroke-linejoin="round"/>
<path d="M132.086 273.341L128.865 271.459L119.601 276.798" stroke="#1AD1B1" stroke-width="1.33333" stroke-linecap="round" stroke-linejoin="round"/>
<path d="M144.571 256.317L207 220.274V350.03L144.571 386.073V256.317Z" stroke="#1AD1B1" stroke-width="1.33333" stroke-linecap="round" stroke-linejoin="round"/>
<path d="M207 220.277L173.87 201.148" stroke="#1AD1B1" stroke-width="1.33333" stroke-linecap="round" stroke-linejoin="round"/>
<path d="M144.571 257.236L132.085 249.109" stroke="#1AD1B1" stroke-width="1.33333" stroke-linecap="round" stroke-linejoin="round"/>
<path d="M144.571 386.073L138.328 382.469" stroke="#1AD1B1" stroke-width="1.33333" stroke-linecap="round" stroke-linejoin="round"/>
<path d="M94.497 418.848V429.401L119.599 414.907V402.605" stroke="#1AD1B1" stroke-width="1.33333" stroke-linecap="round" stroke-linejoin="round"/>
<path d="M94.4969 429.401L85.5241 424.069" stroke="#1AD1B1" stroke-width="1.33333" stroke-linecap="round" stroke-linejoin="round"/>
<path d="M64.7037 414.232L68.3974 425.489C68.8738 426.942 70.857 427.124 71.5894 425.779L74.73 420.021" stroke="#1AD1B1" stroke-width="1.33333" stroke-linecap="round" stroke-linejoin="round"/>
</svg>
