<svg width="563" height="464" viewBox="0 0 563 464" fill="none" xmlns="http://www.w3.org/2000/svg">
<path d="M294.285 1.5848L559.913 154.945C562.824 156.625 562.824 160.828 559.913 162.51L273.18 328.055C271.829 328.835 270.163 328.835 268.812 328.055L102.156 231.837L118.411 222.452L97.3061 210.268L81.0522 219.651L3.18465 174.694C0.271784 173.014 0.271784 168.811 3.18465 167.129L289.917 1.5848C291.268 0.805094 292.934 0.805094 294.285 1.5848Z" stroke="#1AD1B1" stroke-width="1.33333" stroke-linecap="round" stroke-linejoin="round"/>
<path d="M298.256 3.87697L23.8922 162.281L285.549 313.348L559.912 154.944" stroke="#1AD1B1" stroke-width="1.33333" stroke-linecap="round" stroke-linejoin="round"/>
<path d="M35.2779 193.224L3.18431 211.754C0.272583 213.434 0.272583 217.637 3.18431 219.319L81.0519 264.275L97.3069 254.891L118.411 267.076L102.157 276.46L268.812 372.679C270.164 373.46 271.829 373.46 273.18 372.679L559.912 207.134C562.824 205.453 562.824 201.25 559.912 199.568L527.819 181.039" stroke="#1AD1B1" stroke-width="1.33333" stroke-linecap="round" stroke-linejoin="round"/>
<path d="M41.4328 196.777L23.8922 206.904L285.549 357.971L559.912 199.568" stroke="#1AD1B1" stroke-width="1.33333" stroke-linecap="round" stroke-linejoin="round"/>
<path d="M35.2779 237.972L3.18431 256.502C0.272583 258.182 0.272583 262.385 3.18431 264.067L81.0519 309.023L97.3069 299.639L118.411 311.824L102.157 321.208L268.812 417.427C270.164 418.208 271.829 418.208 273.18 417.427L559.912 251.883C562.824 250.201 562.824 245.998 559.912 244.316L527.819 225.787" stroke="#1AD1B1" stroke-width="1.33333" stroke-linecap="round" stroke-linejoin="round"/>
<path d="M41.4328 241.526L23.8922 251.653L285.549 402.72L559.912 244.317" stroke="#1AD1B1" stroke-width="1.33333" stroke-linecap="round" stroke-linejoin="round"/>
<path d="M35.2778 282.972L3.18429 301.502C0.272556 303.182 0.272556 307.385 3.18429 309.067L81.0519 354.022L97.3069 344.639L118.411 356.823L102.157 366.208L268.812 462.426C270.164 463.207 271.828 463.207 273.18 462.426L559.912 296.882C562.824 295.201 562.824 290.998 559.912 289.316L527.819 270.786" stroke="#1AD1B1" stroke-width="1.33333" stroke-linecap="round" stroke-linejoin="round"/>
<path d="M41.4328 286.525L23.8922 296.652L285.549 447.719L559.912 289.316" stroke="#1AD1B1" stroke-width="1.33333" stroke-linecap="round" stroke-linejoin="round"/>
</svg>
