<svg width="705" height="763" viewBox="0 0 705 763" fill="none" xmlns="http://www.w3.org/2000/svg">
<path d="M603.705 112.158C594.649 117.387 589.07 127.048 589.07 137.505V336.292L603.44 327.999V294.816L617.808 286.519V203.562L660.912 178.677V128.904L675.282 120.608V65.56" stroke="white" stroke-width="1.33333" stroke-linecap="round" stroke-linejoin="round"/>
<path d="M603.705 112.158L671.386 72.987C676.657 69.9439 676.657 62.3387 671.386 59.298L572.246 2.05876C569.802 0.646918 566.789 0.646918 564.344 2.05876L488.758 45.794" stroke="white" stroke-width="1.33333" stroke-linecap="round" stroke-linejoin="round"/>
<path d="M488.756 45.7934C479.7 51.0227 474.121 60.684 474.121 71.1404V269.928L589.068 336.293" stroke="white" stroke-width="1.33333" stroke-linecap="round" stroke-linejoin="round"/>
<path d="M665.32 196.941V264.909L622.215 289.796V206.84L652.339 189.446L665.32 196.941Z" stroke="white" stroke-width="1.33333" stroke-linecap="round" stroke-linejoin="round"/>
<path d="M466.939 359.544C466.939 318.481 489.57 297.95 517.229 313.917C544.888 329.888 567.519 376.55 567.519 417.612C567.519 458.677 544.888 479.208 517.229 463.239C489.57 447.27 466.939 400.608 466.939 359.544Z" stroke="white" stroke-width="1.33333" stroke-linecap="round" stroke-linejoin="round"/>
<path d="M551.803 346.446C551.803 340.026 555.341 336.816 559.666 339.311C563.991 341.81 567.527 349.105 567.527 355.525C567.527 361.946 563.991 365.156 559.666 362.659C555.341 360.162 551.803 352.868 551.803 346.446Z" stroke="white" stroke-width="1.33333" stroke-linecap="round" stroke-linejoin="round"/>
<path d="M466.939 297.504C466.939 291.084 470.478 287.875 474.803 290.369C479.127 292.866 482.664 300.163 482.664 306.583C482.664 313.005 479.127 316.212 474.803 313.717C470.478 311.22 466.939 303.926 466.939 297.504Z" stroke="white" stroke-width="1.33333" stroke-linecap="round" stroke-linejoin="round"/>
<path d="M466.939 422.559C466.939 416.137 470.478 412.928 474.803 415.425C479.127 417.922 482.664 425.219 482.664 431.638C482.664 438.058 479.127 441.267 474.803 438.773C470.478 436.273 466.939 428.979 466.939 422.559Z" stroke="white" stroke-width="1.33333" stroke-linecap="round" stroke-linejoin="round"/>
<path d="M551.803 471.143C551.803 464.723 555.341 461.513 559.666 464.008C563.991 466.505 567.527 473.802 567.527 480.221C567.527 486.643 563.991 489.851 559.666 487.356C555.341 484.859 551.803 477.564 551.803 471.143Z" stroke="white" stroke-width="1.33333" stroke-linecap="round" stroke-linejoin="round"/>
<path d="M567.517 409.317V482.87C567.517 487.048 562.993 489.662 559.375 487.571L475.804 439.322C470.319 436.156 466.938 430.303 466.938 423.965V295.309C466.938 290.674 471.954 287.779 475.966 290.096L556.439 336.556C563.295 340.513 567.517 347.828 567.517 355.742V409.317Z" stroke="white" stroke-width="1.33333" stroke-linecap="round" stroke-linejoin="round"/>
<path d="M564.807 487.478L592.228 471.646C594.72 470.207 596.256 467.55 596.256 464.671V459.09" stroke="white" stroke-width="1.33333" stroke-linecap="round" stroke-linejoin="round"/>
<path d="M558.723 338.464L559.013 338.3L575.818 328.641" stroke="white" stroke-width="1.33333" stroke-linecap="round" stroke-linejoin="round"/>
<path d="M596.254 458.478V405.168V388.58V371.987V355.392V338.804V332.147" stroke="white" stroke-width="1.33333" stroke-linecap="round" stroke-linejoin="round"/>
<path d="M489.532 278.83L470.547 289.784L470.538 289.789L470.536 289.793L470.513 289.805L470.506 289.809L470.502 289.814L469.453 290.419" stroke="white" stroke-width="1.33333" stroke-linecap="round" stroke-linejoin="round"/>
<path d="M603.441 297.329L610.624 301.473L615.901 304.521C621.526 307.769 624.991 313.773 624.991 320.268V322.212V338.805V355.393V371.986V388.578V443.446C624.991 447.419 622.873 451.088 619.437 453.068L596.254 466.454" stroke="white" stroke-width="1.33333" stroke-linecap="round" stroke-linejoin="round"/>
<path d="M596.254 338.803L624.991 322.213" stroke="white" stroke-width="1.33333" stroke-linecap="round" stroke-linejoin="round"/>
<path d="M610.624 301.474L603.441 305.623" stroke="white" stroke-width="1.33333" stroke-linecap="round" stroke-linejoin="round"/>
<path d="M596.254 355.395L624.991 338.802" stroke="white" stroke-width="1.33333" stroke-linecap="round" stroke-linejoin="round"/>
<path d="M596.254 371.986L624.991 355.396" stroke="white" stroke-width="1.33333" stroke-linecap="round" stroke-linejoin="round"/>
<path d="M596.254 388.578L624.991 371.985" stroke="white" stroke-width="1.33333" stroke-linecap="round" stroke-linejoin="round"/>
<path d="M596.254 405.169L624.991 388.579" stroke="white" stroke-width="1.33333" stroke-linecap="round" stroke-linejoin="round"/>
<path d="M596.254 421.76L624.991 405.169" stroke="white" stroke-width="1.33333" stroke-linecap="round" stroke-linejoin="round"/>
<path d="M596.254 438.352L624.991 421.759" stroke="white" stroke-width="1.33333" stroke-linecap="round" stroke-linejoin="round"/>
<path d="M596.254 454.943L624.991 438.353" stroke="white" stroke-width="1.33333" stroke-linecap="round" stroke-linejoin="round"/>
<path d="M474.123 236.746L589.07 303.548L603.44 294.814" stroke="white" stroke-width="1.33333" stroke-linecap="round" stroke-linejoin="round"/>
<path d="M498.379 377.911C498.379 362.521 506.861 354.826 517.226 360.812C527.594 366.795 536.076 384.285 536.076 399.674C536.076 415.065 527.594 422.762 517.226 416.776C506.861 410.791 498.379 393.3 498.379 377.911Z" stroke="white" stroke-width="1.33333" stroke-linecap="round" stroke-linejoin="round"/>
<path d="M536.076 399.675C536.076 399.675 550.135 401.021 564.532 390.615" stroke="white" stroke-width="1.33333" stroke-linecap="round" stroke-linejoin="round"/>
<path d="M528.787 373.415C528.787 373.415 545.786 367.891 548.772 348.757" stroke="white" stroke-width="1.33333" stroke-linecap="round" stroke-linejoin="round"/>
<path d="M513.07 358.78C513.07 358.78 519.558 341.909 513.07 311.774" stroke="white" stroke-width="1.33333" stroke-linecap="round" stroke-linejoin="round"/>
<path d="M500.232 366.92C500.232 366.92 486.465 345.964 468.785 340.602" stroke="white" stroke-width="1.33333" stroke-linecap="round" stroke-linejoin="round"/>
<path d="M500.232 392.121C500.232 392.121 485.273 384.162 471.232 392.121" stroke="white" stroke-width="1.33333" stroke-linecap="round" stroke-linejoin="round"/>
<path d="M522.429 418.687C522.429 418.687 518.13 444.729 525.621 467.2" stroke="white" stroke-width="1.33333" stroke-linecap="round" stroke-linejoin="round"/>
<path d="M507.282 406.788C507.282 406.788 490.264 418.864 491.88 438.352" stroke="white" stroke-width="1.33333" stroke-linecap="round" stroke-linejoin="round"/>
<path d="M532.822 413.466C532.822 413.466 544.487 440.846 561.342 449.778" stroke="white" stroke-width="1.33333" stroke-linecap="round" stroke-linejoin="round"/>
<path d="M555.791 348.748C555.791 345.584 557.534 344.001 559.666 345.232C561.797 346.464 563.542 350.06 563.542 353.224C563.542 356.388 561.797 357.971 559.666 356.74C557.534 355.508 555.791 351.912 555.791 348.748Z" stroke="white" stroke-width="1.33333" stroke-linecap="round" stroke-linejoin="round"/>
<path d="M555.791 473.444C555.791 470.28 557.534 468.697 559.666 469.928C561.797 471.16 563.542 474.756 563.542 477.917C563.542 481.084 561.797 482.665 559.666 481.436C557.534 480.204 555.791 476.608 555.791 473.444Z" stroke="white" stroke-width="1.33333" stroke-linecap="round" stroke-linejoin="round"/>
<path d="M470.926 299.806C470.926 296.642 472.669 295.059 474.8 296.291C476.932 297.522 478.677 301.118 478.677 304.28C478.677 307.446 476.932 309.027 474.8 307.798C472.669 306.566 470.926 302.971 470.926 299.806Z" stroke="white" stroke-width="1.33333" stroke-linecap="round" stroke-linejoin="round"/>
<path d="M470.871 424.867C470.871 421.702 472.614 420.119 474.746 421.351C476.877 422.582 478.623 426.176 478.623 429.34C478.623 432.506 476.877 434.087 474.746 432.858C472.614 431.627 470.871 428.031 470.871 424.867Z" stroke="white" stroke-width="1.33333" stroke-linecap="round" stroke-linejoin="round"/>
<path d="M589.071 369.476V464.51L574.703 472.806" stroke="white" stroke-width="1.33333" stroke-linecap="round" stroke-linejoin="round"/>
<path d="M603.438 327.998L617.807 319.702V314.407L603.438 322.716" stroke="white" stroke-width="1.33333" stroke-linecap="round" stroke-linejoin="round"/>
<path d="M617.807 314.408L614.101 312.242L603.439 318.388" stroke="white" stroke-width="1.33333" stroke-linecap="round" stroke-linejoin="round"/>
<path d="M632.176 294.814L704.018 253.336V402.658L632.176 444.134V294.814Z" stroke="white" stroke-width="1.33333" stroke-linecap="round" stroke-linejoin="round"/>
<path d="M704.017 253.336L665.893 231.325" stroke="white" stroke-width="1.33333" stroke-linecap="round" stroke-linejoin="round"/>
<path d="M632.176 295.873L617.809 286.52" stroke="white" stroke-width="1.33333" stroke-linecap="round" stroke-linejoin="round"/>
<path d="M632.175 444.136L624.99 439.989" stroke="white" stroke-width="1.33333" stroke-linecap="round" stroke-linejoin="round"/>
<path d="M574.551 481.853V493.995L603.439 477.318V463.161" stroke="white" stroke-width="1.33333" stroke-linecap="round" stroke-linejoin="round"/>
<path d="M574.551 493.996L564.225 487.86" stroke="white" stroke-width="1.33333" stroke-linecap="round" stroke-linejoin="round"/>
<path d="M540.266 476.539L544.515 489.493C545.065 491.167 547.348 491.375 548.191 489.828L551.803 483.201" stroke="white" stroke-width="1.33333" stroke-linecap="round" stroke-linejoin="round"/>
<path d="M546.313 490.876L315.157 626.623C294.088 638.996 294.038 669.438 315.063 681.882L383.138 722.172C403.454 734.196 404.256 763.308 384.632 776.432L1 1033" stroke="white" stroke-width="1.33333" stroke-linecap="round" stroke-linejoin="round"/>
</svg>
