<svg width="264" height="230" viewBox="0 0 264 230" fill="none" xmlns="http://www.w3.org/2000/svg">
<path d="M137.755 1.31689L261.613 76.9896C262.971 77.8188 262.971 79.8927 261.613 80.7225L127.914 162.408C127.284 162.793 126.507 162.793 125.877 162.408L48.1679 114.931L55.7474 110.3L45.9063 104.288L38.3274 108.918L2.01884 86.7347C0.660617 85.9055 0.660617 83.8316 2.01884 83.0018L135.718 1.31689C136.348 0.932156 137.125 0.932156 137.755 1.31689Z" stroke="#1AD1B1" stroke-width="1.33333" stroke-linecap="round" stroke-linejoin="round"/>
<path d="M139.606 2.44784L11.674 80.6094L133.681 155.151L261.612 76.9893" stroke="#1AD1B1" stroke-width="1.33333" stroke-linecap="round" stroke-linejoin="round"/>
<path d="M16.9832 95.878L2.01845 105.021C0.660749 105.85 0.660749 107.924 2.01845 108.754L38.327 130.937L45.9064 126.306L55.747 132.319L48.168 136.949L125.877 184.427C126.507 184.812 127.283 184.812 127.913 184.427L261.613 102.742C262.97 101.912 262.97 99.8381 261.613 99.0083L246.648 89.8652" stroke="#1AD1B1" stroke-width="1.33333" stroke-linecap="round" stroke-linejoin="round"/>
<path d="M19.8529 97.6311L11.674 102.628L133.681 177.17L261.612 99.0081" stroke="#1AD1B1" stroke-width="1.33333" stroke-linecap="round" stroke-linejoin="round"/>
<path d="M16.9832 117.958L2.01845 127.101C0.660749 127.931 0.660749 130.005 2.01845 130.834L38.327 153.017L45.9064 148.387L55.747 154.399L48.168 159.03L125.877 206.507C126.507 206.892 127.283 206.892 127.913 206.507L261.613 124.822C262.97 123.992 262.97 121.918 261.613 121.089L246.648 111.946" stroke="#1AD1B1" stroke-width="1.33333" stroke-linecap="round" stroke-linejoin="round"/>
<path d="M19.8529 119.712L11.674 124.709L133.681 199.25L261.612 121.089" stroke="#1AD1B1" stroke-width="1.33333" stroke-linecap="round" stroke-linejoin="round"/>
<path d="M16.9832 140.162L2.01845 149.305C0.660749 150.135 0.660749 152.208 2.01845 153.038L38.327 175.221L45.9064 170.591L55.747 176.603L48.168 181.234L125.877 228.711C126.507 229.096 127.283 229.096 127.913 228.711L261.613 147.026C262.97 146.196 262.97 144.122 261.613 143.293L246.648 134.15" stroke="#1AD1B1" stroke-width="1.33333" stroke-linecap="round" stroke-linejoin="round"/>
<path d="M19.8529 141.916L11.674 146.913L133.681 221.454L261.612 143.293" stroke="#1AD1B1" stroke-width="1.33333" stroke-linecap="round" stroke-linejoin="round"/>
</svg>
