<svg width="249" height="312" viewBox="0 0 249 312" fill="none" xmlns="http://www.w3.org/2000/svg">
<path d="M248.098 127.555V159.458L206.655 183.386L179.025 167.436V151.487V135.529L192.841 127.555L220.472 111.606L248.098 127.555Z" stroke="#1AD1B1" stroke-width="1.33333" stroke-linecap="round" stroke-linejoin="round"/>
<path d="M192.842 127.555L179.025 119.58L151.395 103.627L123.768 87.6774L96.1376 71.7237" stroke="#1AD1B1" stroke-width="1.33333" stroke-linecap="round" stroke-linejoin="round"/>
<path d="M179.027 135.531L206.656 151.482L248.1 127.555" stroke="#1AD1B1" stroke-width="1.33333" stroke-linecap="round" stroke-linejoin="round"/>
<path d="M206.656 151.483V183.386" stroke="#1AD1B1" stroke-width="1.33333" stroke-linecap="round" stroke-linejoin="round"/>
<path d="M179.027 167.435L54.6954 95.6522" stroke="#1AD1B1" stroke-width="1.33333" stroke-linecap="round" stroke-linejoin="round"/>
<path d="M137.583 239.216L220.471 287.071L179.026 310.999L96.1395 263.144" stroke="#1AD1B1" stroke-width="1.33333" stroke-linecap="round" stroke-linejoin="round"/>
<path d="M46.6341 100.3L104.154 67.091V27.2396L46.6341 60.4492V100.3Z" stroke="#1AD1B1" stroke-width="1.33333" stroke-linecap="round" stroke-linejoin="round"/>
<path d="M58.704 1.0002L1.17994 34.206L1 34.3093V73.9435" stroke="#1AD1B1" stroke-width="1.33333" stroke-linecap="round" stroke-linejoin="round"/>
<path d="M66.3188 42.7814V42.7776L93.945 26.8284H93.9488V26.8239" stroke="#1AD1B1" stroke-width="1.33333" stroke-linecap="round" stroke-linejoin="round"/>
<path d="M96.1382 55.7742L82.3247 47.7955" stroke="#1AD1B1" stroke-width="1.33333" stroke-linecap="round" stroke-linejoin="round"/>
<path d="M58.7036 0.999998L104.152 27.2391V27.2429V67.0889V67.0927" stroke="#1AD1B1" stroke-width="1.33333" stroke-linecap="round" stroke-linejoin="round"/>
<path d="M1.17924 34.2062L46.6322 60.4499V60.4537V100.291V100.295V100.299" stroke="#1AD1B1" stroke-width="1.33333" stroke-linecap="round" stroke-linejoin="round"/>
<path d="M1 73.9437L46.6322 100.291V100.295V100.299" stroke="#1AD1B1" stroke-width="1.33333" stroke-linecap="round" stroke-linejoin="round"/>
<path d="M151.395 183.389V183.385H151.399V199.267V215.288V231.241H151.395L137.586 239.216H137.582L96.143 263.144H96.1385L82.3257 271.122V223.266" stroke="#1AD1B1" stroke-width="1.33333" stroke-linecap="round" stroke-linejoin="round"/>
<path d="M40.881 247.194V199.338L109.951 159.461V159.457H109.955V159.461" stroke="#1AD1B1" stroke-width="1.33333" stroke-linecap="round" stroke-linejoin="round"/>
<path d="M40.8801 199.338L82.3235 223.266V271.121L40.8801 247.193V199.338Z" stroke="#1AD1B1" stroke-width="1.33333" stroke-linecap="round" stroke-linejoin="round"/>
<path d="M137.582 223.267L123.768 215.288" stroke="#1AD1B1" stroke-width="1.33333" stroke-linecap="round" stroke-linejoin="round"/>
<path d="M109.955 159.465H109.952V159.457H109.955V159.465ZM109.955 159.465L151.394 183.388V199.266V215.291V231.241" stroke="#1AD1B1" stroke-width="1.33333" stroke-linecap="round" stroke-linejoin="round"/>
<path d="M206.655 183.385L192.838 191.364L179.025 199.338L165.212 207.313L151.398 215.288L151.395 215.291" stroke="#1AD1B1" stroke-width="1.33333" stroke-linecap="round" stroke-linejoin="round"/>
<path d="M179.025 167.436L151.398 183.385H151.395V183.389" stroke="#1AD1B1" stroke-width="1.33333" stroke-linecap="round" stroke-linejoin="round"/>
<path d="M54.6955 95.6519V63.7482L96.1389 39.821V71.7239L54.6955 95.6519Z" stroke="#1AD1B1" stroke-width="1.33333" stroke-linecap="round" stroke-linejoin="round"/>
<path d="M96.1394 263.144V231.241L137.583 207.313V239.216L96.1394 263.144Z" stroke="#1AD1B1" stroke-width="1.33333" stroke-linecap="round" stroke-linejoin="round"/>
<path d="M182.997 169.667V146.933L202.685 158.3V181.033L182.997 169.667Z" stroke="#1AD1B1" stroke-width="1.33333" stroke-linecap="round" stroke-linejoin="round"/>
<path d="M82.3247 111.603L123.769 87.6755" stroke="#1AD1B1" stroke-width="1.33333" stroke-linecap="round" stroke-linejoin="round"/>
<path d="M151.395 103.627L144.338 107.704" stroke="#1AD1B1" stroke-width="1.33333" stroke-linecap="round" stroke-linejoin="round"/>
<path d="M123.614 119.668L109.952 127.555" stroke="#1AD1B1" stroke-width="1.33333" stroke-linecap="round" stroke-linejoin="round"/>
<path d="M137.582 143.507L179.026 119.579" stroke="#1AD1B1" stroke-width="1.33333" stroke-linecap="round" stroke-linejoin="round"/>
<path d="M165.212 255.169L160.031 258.158L159.66 258.373" stroke="#1AD1B1" stroke-width="1.33333" stroke-linecap="round" stroke-linejoin="round"/>
<path d="M141.686 268.751L123.768 279.096" stroke="#1AD1B1" stroke-width="1.33333" stroke-linecap="round" stroke-linejoin="round"/>
<path d="M151.397 295.049L192.84 271.121" stroke="#1AD1B1" stroke-width="1.33333" stroke-linecap="round" stroke-linejoin="round"/>
<path d="M179.025 151.487L165.459 159.318" stroke="#1AD1B1" stroke-width="1.33333" stroke-linecap="round" stroke-linejoin="round"/>
<path d="M192.842 191.364H192.838L179.108 183.361" stroke="#1AD1B1" stroke-width="1.33333" stroke-linecap="round" stroke-linejoin="round"/>
<path d="M170.357 178.264L165.459 175.411" stroke="#1AD1B1" stroke-width="1.33333" stroke-linecap="round" stroke-linejoin="round"/>
<path d="M165.212 207.313L151.398 199.267H151.395" stroke="#1AD1B1" stroke-width="1.33333" stroke-linecap="round" stroke-linejoin="round"/>
<path d="M179.025 199.338L174.478 196.688" stroke="#1AD1B1" stroke-width="1.33333" stroke-linecap="round" stroke-linejoin="round"/>
<path d="M82.3247 223.267L151.646 183.386L159.652 188.052" stroke="#1AD1B1" stroke-width="1.33333" stroke-linecap="round" stroke-linejoin="round"/>
<path d="M102.031 40.3567L98.4684 42.4135" stroke="#1AD1B1" stroke-width="1.33333" stroke-linecap="round" stroke-linejoin="round"/>
<path d="M102.031 43.8525L98.4684 45.9093" stroke="#1AD1B1" stroke-width="1.33333" stroke-linecap="round" stroke-linejoin="round"/>
<path d="M102.031 47.3492L98.4684 49.406" stroke="#1AD1B1" stroke-width="1.33333" stroke-linecap="round" stroke-linejoin="round"/>
<path d="M8.24775 64.913L35.5353 80.6671" stroke="#1AD1B1" stroke-width="1.33333" stroke-linecap="round" stroke-linejoin="round"/>
<path d="M8.24773 70.8783L35.5353 86.6324" stroke="#1AD1B1" stroke-width="1.33333" stroke-linecap="round" stroke-linejoin="round"/>
<path d="M47.9585 211.399L75.2461 227.154" stroke="#1AD1B1" stroke-width="1.33333" stroke-linecap="round" stroke-linejoin="round"/>
<path d="M98.652 54.499V56.9939C98.652 57.5937 99.3011 57.968 99.8197 57.6681L101.98 56.4207C102.221 56.2817 102.37 56.0243 102.37 55.7465V53.2516C102.37 52.6518 101.721 52.2775 101.201 52.5774L99.0415 53.8248C98.8 53.9638 98.652 54.2204 98.652 54.499Z" stroke="#1AD1B1" stroke-width="1.33333" stroke-linecap="round" stroke-linejoin="round"/>
<path d="M141.652 206.689V214.002C141.652 214.601 142.301 214.976 142.819 214.676L146.937 212.056C147.179 211.917 147.327 211.66 147.327 211.382V204.069C147.327 203.469 146.678 203.095 146.158 203.395L142.041 206.015C141.8 206.154 141.652 206.411 141.652 206.689Z" stroke="#1AD1B1" stroke-width="1.33333" stroke-linecap="round" stroke-linejoin="round"/>
<path d="M185.454 135.359L220.694 115.208L241.809 127.396L206.658 147.601L185.454 135.359Z" stroke="#1AD1B1" stroke-width="1.33333" stroke-linecap="round" stroke-linejoin="round"/>
<path d="M221.987 147.128L244.523 134.117V157.417" stroke="#1AD1B1" stroke-width="1.33333" stroke-linecap="round" stroke-linejoin="round"/>
<path d="M40.8832 49.8329L13.2532 33.8815L40.8832 17.93" stroke="#1AD1B1" stroke-width="1.33333" stroke-linecap="round" stroke-linejoin="round"/>
<path d="M68.5108 190.2L109.955 166.272L123.769 174.248" stroke="#1AD1B1" stroke-width="1.33333" stroke-linecap="round" stroke-linejoin="round"/>
<path d="M120.01 109.608L125.229 106.595C130.549 103.523 137.102 103.523 142.422 106.594L147.643 109.608L140.735 113.597L136.677 111.253C134.913 110.235 132.74 110.235 130.975 111.253L126.917 113.597L120.01 109.608Z" stroke="#1AD1B1" stroke-width="1.33333" stroke-linecap="round" stroke-linejoin="round"/>
<path d="M147.643 109.608V117.585L140.735 121.574L136.677 119.231C134.913 118.213 132.74 118.213 130.975 119.231L126.918 121.574L120.01 117.585V109.608" stroke="#1AD1B1" stroke-width="1.33333" stroke-linecap="round" stroke-linejoin="round"/>
<path d="M140.735 113.597V121.574" stroke="#1AD1B1" stroke-width="1.33333" stroke-linecap="round" stroke-linejoin="round"/>
<path d="M126.917 113.597V121.574" stroke="#1AD1B1" stroke-width="1.33333" stroke-linecap="round" stroke-linejoin="round"/>
<path d="M162.452 187.876C158.645 185.678 158.646 182.082 162.453 179.885C166.259 177.687 172.489 177.687 176.296 179.885C180.102 182.082 180.102 185.678 176.295 187.876C172.488 190.074 166.259 190.074 162.452 187.876Z" stroke="#1AD1B1" stroke-width="1.33333" stroke-linecap="round" stroke-linejoin="round"/>
<path d="M179.136 191.579C179.273 193.125 178.327 194.694 176.295 195.868C172.489 198.067 166.259 198.067 162.453 195.868C160.288 194.618 159.353 192.917 159.651 191.278" stroke="#1AD1B1" stroke-width="1.33333" stroke-linecap="round" stroke-linejoin="round"/>
<path d="M176.296 187.877H176.294" stroke="#1AD1B1" stroke-width="1.33333" stroke-linecap="round" stroke-linejoin="round"/>
<path d="M179.136 183.88V191.871" stroke="#1AD1B1" stroke-width="1.33333" stroke-linecap="round" stroke-linejoin="round"/>
<path d="M159.651 184.455V191.31" stroke="#1AD1B1" stroke-width="1.33333" stroke-linecap="round" stroke-linejoin="round"/>
<path d="M164.989 186.059C162.566 184.743 162.567 182.591 164.99 181.275C167.412 179.959 171.376 179.959 173.798 181.275C176.221 182.591 176.221 184.743 173.798 186.059C171.375 187.375 167.412 187.375 164.989 186.059Z" stroke="#1AD1B1" stroke-width="1.33333" stroke-linecap="round" stroke-linejoin="round"/>
<path d="M137.332 276.297L146.339 281.449L159.896 257.968L150.888 252.817L137.332 276.297Z" stroke="#1AD1B1" stroke-width="1.33333" stroke-linecap="round" stroke-linejoin="round"/>
<path d="M159.895 257.967L165.459 265.794L159.895 273.621L146.339 281.448" stroke="#1AD1B1" stroke-width="1.33333" stroke-linecap="round" stroke-linejoin="round"/>
</svg>
