<svg width="394" height="494" viewBox="0 0 394 494" fill="none" xmlns="http://www.w3.org/2000/svg">
<path d="M392.943 201.854V252.487L327.168 290.463L283.316 265.149V239.836V214.51L305.245 201.854L349.097 176.541L392.943 201.854Z" stroke="#1AD1B1" stroke-width="1.33333" stroke-linecap="round" stroke-linejoin="round"/>
<path d="M305.245 201.854L283.315 189.199L239.464 163.878L195.617 138.565L151.766 113.245" stroke="#1AD1B1" stroke-width="1.33333" stroke-linecap="round" stroke-linejoin="round"/>
<path d="M283.32 214.513L327.171 239.83L392.945 201.855" stroke="#1AD1B1" stroke-width="1.33333" stroke-linecap="round" stroke-linejoin="round"/>
<path d="M327.168 239.831V290.465" stroke="#1AD1B1" stroke-width="1.33333" stroke-linecap="round" stroke-linejoin="round"/>
<path d="M283.318 265.147L85.9922 151.222" stroke="#1AD1B1" stroke-width="1.33333" stroke-linecap="round" stroke-linejoin="round"/>
<path d="M217.544 379.073L349.095 455.024L283.319 493L151.77 417.049" stroke="#1AD1B1" stroke-width="1.33333" stroke-linecap="round" stroke-linejoin="round"/>
<path d="M73.1992 158.599L164.488 105.893V42.6452L73.1992 95.3521V158.599Z" stroke="#1AD1B1" stroke-width="1.33333" stroke-linecap="round" stroke-linejoin="round"/>
<path d="M92.3552 1.00049L1.05902 53.7013L0.773438 53.8652V116.769" stroke="#1AD1B1" stroke-width="1.33333" stroke-linecap="round" stroke-linejoin="round"/>
<path d="M104.441 67.3123V67.3062L148.287 41.9933H148.293V41.9861" stroke="#1AD1B1" stroke-width="1.33333" stroke-linecap="round" stroke-linejoin="round"/>
<path d="M151.767 87.9321L129.844 75.269" stroke="#1AD1B1" stroke-width="1.33333" stroke-linecap="round" stroke-linejoin="round"/>
<path d="M92.3555 0.999928L164.487 42.6439V42.6499V105.889V105.896" stroke="#1AD1B1" stroke-width="1.33333" stroke-linecap="round" stroke-linejoin="round"/>
<path d="M1.05859 53.7016L73.1969 95.3528V95.3588V158.585V158.591V158.597" stroke="#1AD1B1" stroke-width="1.33333" stroke-linecap="round" stroke-linejoin="round"/>
<path d="M0.773438 116.769L73.1961 158.584V158.591V158.597" stroke="#1AD1B1" stroke-width="1.33333" stroke-linecap="round" stroke-linejoin="round"/>
<path d="M239.464 290.469V290.463H239.47V315.669V341.096V366.415H239.464L217.548 379.071H217.541L151.773 417.047H151.766L129.844 429.71V353.758" stroke="#1AD1B1" stroke-width="1.33333" stroke-linecap="round" stroke-linejoin="round"/>
<path d="M64.0703 391.734V315.782L173.691 252.493V252.487H173.697V252.493" stroke="#1AD1B1" stroke-width="1.33333" stroke-linecap="round" stroke-linejoin="round"/>
<path d="M64.0664 315.781L129.841 353.757V429.708L64.0664 391.732V315.781Z" stroke="#1AD1B1" stroke-width="1.33333" stroke-linecap="round" stroke-linejoin="round"/>
<path d="M217.541 353.758L195.617 341.095" stroke="#1AD1B1" stroke-width="1.33333" stroke-linecap="round" stroke-linejoin="round"/>
<path d="M173.697 252.499H173.691V252.486H173.697V252.499ZM173.697 252.499L239.465 290.468V315.668V341.101V366.414" stroke="#1AD1B1" stroke-width="1.33333" stroke-linecap="round" stroke-linejoin="round"/>
<path d="M327.169 290.463L305.24 303.126L283.318 315.782L261.394 328.439L239.471 341.096L239.465 341.101" stroke="#1AD1B1" stroke-width="1.33333" stroke-linecap="round" stroke-linejoin="round"/>
<path d="M283.316 265.15L239.471 290.463H239.465V290.469" stroke="#1AD1B1" stroke-width="1.33333" stroke-linecap="round" stroke-linejoin="round"/>
<path d="M85.9922 151.221V100.587L151.767 62.6121V113.245L85.9922 151.221Z" stroke="#1AD1B1" stroke-width="1.33333" stroke-linecap="round" stroke-linejoin="round"/>
<path d="M151.77 417.049V366.415L217.544 328.44V379.073L151.77 417.049Z" stroke="#1AD1B1" stroke-width="1.33333" stroke-linecap="round" stroke-linejoin="round"/>
<path d="M289.621 268.692V232.611L320.867 250.651V286.731L289.621 268.692Z" stroke="#1AD1B1" stroke-width="1.33333" stroke-linecap="round" stroke-linejoin="round"/>
<path d="M129.844 176.538L195.62 138.563" stroke="#1AD1B1" stroke-width="1.33333" stroke-linecap="round" stroke-linejoin="round"/>
<path d="M239.463 163.878L228.262 170.349" stroke="#1AD1B1" stroke-width="1.33333" stroke-linecap="round" stroke-linejoin="round"/>
<path d="M195.374 189.337L173.691 201.854" stroke="#1AD1B1" stroke-width="1.33333" stroke-linecap="round" stroke-linejoin="round"/>
<path d="M217.543 227.172L283.319 189.196" stroke="#1AD1B1" stroke-width="1.33333" stroke-linecap="round" stroke-linejoin="round"/>
<path d="M261.393 404.391L253.17 409.135L252.582 409.476" stroke="#1AD1B1" stroke-width="1.33333" stroke-linecap="round" stroke-linejoin="round"/>
<path d="M224.059 425.947L195.621 442.366" stroke="#1AD1B1" stroke-width="1.33333" stroke-linecap="round" stroke-linejoin="round"/>
<path d="M239.469 467.684L305.244 429.708" stroke="#1AD1B1" stroke-width="1.33333" stroke-linecap="round" stroke-linejoin="round"/>
<path d="M283.316 239.836L261.785 252.266" stroke="#1AD1B1" stroke-width="1.33333" stroke-linecap="round" stroke-linejoin="round"/>
<path d="M305.246 303.126H305.24L283.449 290.424" stroke="#1AD1B1" stroke-width="1.33333" stroke-linecap="round" stroke-linejoin="round"/>
<path d="M269.558 282.335L261.785 277.806" stroke="#1AD1B1" stroke-width="1.33333" stroke-linecap="round" stroke-linejoin="round"/>
<path d="M261.394 328.439L239.471 315.668H239.465" stroke="#1AD1B1" stroke-width="1.33333" stroke-linecap="round" stroke-linejoin="round"/>
<path d="M283.318 315.782L276.102 311.575" stroke="#1AD1B1" stroke-width="1.33333" stroke-linecap="round" stroke-linejoin="round"/>
<path d="M129.844 353.758L239.863 290.463L252.569 297.869" stroke="#1AD1B1" stroke-width="1.33333" stroke-linecap="round" stroke-linejoin="round"/>
<path d="M161.119 63.4628L155.465 66.7271" stroke="#1AD1B1" stroke-width="1.33333" stroke-linecap="round" stroke-linejoin="round"/>
<path d="M161.119 69.0114L155.465 72.2756" stroke="#1AD1B1" stroke-width="1.33333" stroke-linecap="round" stroke-linejoin="round"/>
<path d="M161.119 74.5604L155.465 77.8247" stroke="#1AD1B1" stroke-width="1.33333" stroke-linecap="round" stroke-linejoin="round"/>
<path d="M12.2773 102.437L55.5854 127.44" stroke="#1AD1B1" stroke-width="1.33333" stroke-linecap="round" stroke-linejoin="round"/>
<path d="M12.2773 111.903L55.5854 136.907" stroke="#1AD1B1" stroke-width="1.33333" stroke-linecap="round" stroke-linejoin="round"/>
<path d="M75.3008 334.925L118.609 359.928" stroke="#1AD1B1" stroke-width="1.33333" stroke-linecap="round" stroke-linejoin="round"/>
<path d="M155.758 85.9098V89.8694C155.758 90.8213 156.788 91.4154 157.611 90.9394L161.04 88.9596C161.422 88.7391 161.659 88.3306 161.659 87.8896V83.9301C161.659 82.9781 160.628 82.3841 159.804 82.86L156.376 84.8398C155.993 85.0603 155.758 85.4676 155.758 85.9098Z" stroke="#1AD1B1" stroke-width="1.33333" stroke-linecap="round" stroke-linejoin="round"/>
<path d="M224 327.45V339.056C224 340.007 225.03 340.602 225.853 340.126L232.389 335.968C232.772 335.746 233.007 335.339 233.007 334.898V323.291C233.007 322.339 231.977 321.745 231.153 322.221L224.618 326.38C224.235 326.6 224 327.009 224 327.45Z" stroke="#1AD1B1" stroke-width="1.33333" stroke-linecap="round" stroke-linejoin="round"/>
<path d="M293.52 214.241L349.45 182.26L382.961 201.603L327.172 233.671L293.52 214.241Z" stroke="#1AD1B1" stroke-width="1.33333" stroke-linecap="round" stroke-linejoin="round"/>
<path d="M351.5 232.92L387.267 212.271V249.249" stroke="#1AD1B1" stroke-width="1.33333" stroke-linecap="round" stroke-linejoin="round"/>
<path d="M64.0702 78.5046L20.2188 53.1881L64.0702 27.8715" stroke="#1AD1B1" stroke-width="1.33333" stroke-linecap="round" stroke-linejoin="round"/>
<path d="M107.918 301.28L173.694 263.304L195.619 275.963" stroke="#1AD1B1" stroke-width="1.33333" stroke-linecap="round" stroke-linejoin="round"/>
<path d="M189.652 173.372L197.937 168.59C206.379 163.714 216.78 163.714 225.223 168.589L233.509 173.372L222.546 179.703L216.105 175.983C213.305 174.368 209.856 174.368 207.056 175.983L200.615 179.703L189.652 173.372Z" stroke="#1AD1B1" stroke-width="1.33333" stroke-linecap="round" stroke-linejoin="round"/>
<path d="M233.509 173.372V186.032L222.545 192.363L216.105 188.644C213.305 187.028 209.856 187.028 207.056 188.644L200.616 192.363L189.652 186.032V173.372" stroke="#1AD1B1" stroke-width="1.33333" stroke-linecap="round" stroke-linejoin="round"/>
<path d="M222.547 179.703V192.363" stroke="#1AD1B1" stroke-width="1.33333" stroke-linecap="round" stroke-linejoin="round"/>
<path d="M200.617 179.703V192.363" stroke="#1AD1B1" stroke-width="1.33333" stroke-linecap="round" stroke-linejoin="round"/>
<path d="M257.015 297.592C250.973 294.103 250.975 288.395 257.016 284.908C263.058 281.42 272.945 281.42 278.987 284.908C285.028 288.395 285.027 294.103 278.985 297.592C272.944 301.08 263.057 301.08 257.015 297.592Z" stroke="#1AD1B1" stroke-width="1.33333" stroke-linecap="round" stroke-linejoin="round"/>
<path d="M283.491 303.468C283.709 305.922 282.207 308.412 278.982 310.275C272.941 313.765 263.053 313.765 257.012 310.275C253.577 308.291 252.094 305.592 252.566 302.99" stroke="#1AD1B1" stroke-width="1.33333" stroke-linecap="round" stroke-linejoin="round"/>
<path d="M278.987 297.593H278.984" stroke="#1AD1B1" stroke-width="1.33333" stroke-linecap="round" stroke-linejoin="round"/>
<path d="M283.492 291.249V303.933" stroke="#1AD1B1" stroke-width="1.33333" stroke-linecap="round" stroke-linejoin="round"/>
<path d="M252.57 292.162V303.042" stroke="#1AD1B1" stroke-width="1.33333" stroke-linecap="round" stroke-linejoin="round"/>
<path d="M261.039 294.708C257.194 292.62 257.196 289.204 261.041 287.115C264.886 285.027 271.177 285.027 275.021 287.115C278.866 289.204 278.866 292.62 275.021 294.708C271.176 296.796 264.885 296.796 261.039 294.708Z" stroke="#1AD1B1" stroke-width="1.33333" stroke-linecap="round" stroke-linejoin="round"/>
<path d="M217.145 437.923L231.44 446.1L252.955 408.834L238.659 400.658L217.145 437.923Z" stroke="#1AD1B1" stroke-width="1.33333" stroke-linecap="round" stroke-linejoin="round"/>
<path d="M252.956 408.833L261.788 421.255L252.956 433.677L231.441 446.099" stroke="#1AD1B1" stroke-width="1.33333" stroke-linecap="round" stroke-linejoin="round"/>
</svg>
