<svg width="765" height="959" viewBox="0 0 765 959" fill="none" xmlns="http://www.w3.org/2000/svg">
<path d="M764.297 391.691V490.178L636.358 564.045L551.062 514.806V465.57V416.308L593.715 391.691L679.013 342.454L764.297 391.691Z" stroke="#1AD1B1" stroke-width="1.33333" stroke-linecap="round" stroke-linejoin="round"/>
<path d="M593.717 391.691L551.063 367.074L465.767 317.824L380.48 268.587L295.185 219.337" stroke="#1AD1B1" stroke-width="1.33333" stroke-linecap="round" stroke-linejoin="round"/>
<path d="M551.068 416.314L636.361 465.557L764.3 391.692" stroke="#1AD1B1" stroke-width="1.33333" stroke-linecap="round" stroke-linejoin="round"/>
<path d="M636.363 465.558V564.047" stroke="#1AD1B1" stroke-width="1.33333" stroke-linecap="round" stroke-linejoin="round"/>
<path d="M551.071 514.803L167.252 293.205" stroke="#1AD1B1" stroke-width="1.33333" stroke-linecap="round" stroke-linejoin="round"/>
<path d="M423.129 736.4L679.009 884.133L551.068 958L295.19 810.268" stroke="#1AD1B1" stroke-width="1.33333" stroke-linecap="round" stroke-linejoin="round"/>
<path d="M142.365 307.554L319.931 205.036V82.0123L142.365 184.533V307.554Z" stroke="#1AD1B1" stroke-width="1.33333" stroke-linecap="round" stroke-linejoin="round"/>
<path d="M179.623 1.00894L2.04181 103.518L1.48633 103.836V226.19" stroke="#1AD1B1" stroke-width="1.33333" stroke-linecap="round" stroke-linejoin="round"/>
<path d="M203.131 129.992V129.98L288.415 80.7441H288.427V80.7301" stroke="#1AD1B1" stroke-width="1.33333" stroke-linecap="round" stroke-linejoin="round"/>
<path d="M295.187 170.1L252.543 145.469" stroke="#1AD1B1" stroke-width="1.33333" stroke-linecap="round" stroke-linejoin="round"/>
<path d="M179.625 1.00788L319.927 82.0098V82.0215V205.029V205.041" stroke="#1AD1B1" stroke-width="1.33333" stroke-linecap="round" stroke-linejoin="round"/>
<path d="M2.04122 103.518L142.358 184.534V184.546V307.527V307.539V307.551" stroke="#1AD1B1" stroke-width="1.33333" stroke-linecap="round" stroke-linejoin="round"/>
<path d="M1.48633 226.19L142.356 307.525V307.539V307.551" stroke="#1AD1B1" stroke-width="1.33333" stroke-linecap="round" stroke-linejoin="round"/>
<path d="M465.768 564.056V564.044H465.78V613.072V662.531V711.779H465.768L423.139 736.396H423.125L295.2 810.263H295.186L252.545 834.894V687.16" stroke="#1AD1B1" stroke-width="1.33333" stroke-linecap="round" stroke-linejoin="round"/>
<path d="M124.602 761.027V613.292L337.825 490.188V490.177H337.836V490.188" stroke="#1AD1B1" stroke-width="1.33333" stroke-linecap="round" stroke-linejoin="round"/>
<path d="M124.602 613.29L252.541 687.158V834.89L124.602 761.023V613.29Z" stroke="#1AD1B1" stroke-width="1.33333" stroke-linecap="round" stroke-linejoin="round"/>
<path d="M423.125 687.16L380.481 662.529" stroke="#1AD1B1" stroke-width="1.33333" stroke-linecap="round" stroke-linejoin="round"/>
<path d="M337.842 490.199H337.83V490.175H337.842V490.199ZM337.842 490.199L465.767 564.054V613.07V662.541V711.777" stroke="#1AD1B1" stroke-width="1.33333" stroke-linecap="round" stroke-linejoin="round"/>
<path d="M636.363 564.044L593.708 588.675L551.067 613.292L508.424 637.911L465.781 662.53L465.769 662.54" stroke="#1AD1B1" stroke-width="1.33333" stroke-linecap="round" stroke-linejoin="round"/>
<path d="M551.065 514.807L465.781 564.043H465.769V564.055" stroke="#1AD1B1" stroke-width="1.33333" stroke-linecap="round" stroke-linejoin="round"/>
<path d="M167.252 293.204V194.715L295.191 120.85V219.337L167.252 293.204Z" stroke="#1AD1B1" stroke-width="1.33333" stroke-linecap="round" stroke-linejoin="round"/>
<path d="M295.19 810.267V711.778L423.129 637.913V736.4L295.19 810.267Z" stroke="#1AD1B1" stroke-width="1.33333" stroke-linecap="round" stroke-linejoin="round"/>
<path d="M563.322 521.696V451.516L624.099 486.605V556.785L563.322 521.696Z" stroke="#1AD1B1" stroke-width="1.33333" stroke-linecap="round" stroke-linejoin="round"/>
<path d="M252.543 342.448L380.485 268.583" stroke="#1AD1B1" stroke-width="1.33333" stroke-linecap="round" stroke-linejoin="round"/>
<path d="M465.767 317.824L443.979 330.41" stroke="#1AD1B1" stroke-width="1.33333" stroke-linecap="round" stroke-linejoin="round"/>
<path d="M380.004 367.344L337.829 391.691" stroke="#1AD1B1" stroke-width="1.33333" stroke-linecap="round" stroke-linejoin="round"/>
<path d="M423.132 440.937L551.073 367.069" stroke="#1AD1B1" stroke-width="1.33333" stroke-linecap="round" stroke-linejoin="round"/>
<path d="M508.421 785.647L492.427 794.874L491.283 795.537" stroke="#1AD1B1" stroke-width="1.33333" stroke-linecap="round" stroke-linejoin="round"/>
<path d="M435.797 827.574L380.483 859.511" stroke="#1AD1B1" stroke-width="1.33333" stroke-linecap="round" stroke-linejoin="round"/>
<path d="M465.775 908.758L593.714 834.89" stroke="#1AD1B1" stroke-width="1.33333" stroke-linecap="round" stroke-linejoin="round"/>
<path d="M551.064 465.57L509.184 489.746" stroke="#1AD1B1" stroke-width="1.33333" stroke-linecap="round" stroke-linejoin="round"/>
<path d="M593.72 588.675H593.708L551.323 563.969" stroke="#1AD1B1" stroke-width="1.33333" stroke-linecap="round" stroke-linejoin="round"/>
<path d="M524.304 548.234L509.184 539.426" stroke="#1AD1B1" stroke-width="1.33333" stroke-linecap="round" stroke-linejoin="round"/>
<path d="M508.424 637.911L465.781 613.071H465.769" stroke="#1AD1B1" stroke-width="1.33333" stroke-linecap="round" stroke-linejoin="round"/>
<path d="M551.061 613.292L537.023 605.11" stroke="#1AD1B1" stroke-width="1.33333" stroke-linecap="round" stroke-linejoin="round"/>
<path d="M252.543 687.16L466.542 564.044L491.258 578.449" stroke="#1AD1B1" stroke-width="1.33333" stroke-linecap="round" stroke-linejoin="round"/>
<path d="M313.376 122.505L302.379 128.854" stroke="#1AD1B1" stroke-width="1.33333" stroke-linecap="round" stroke-linejoin="round"/>
<path d="M313.376 133.297L302.379 139.647" stroke="#1AD1B1" stroke-width="1.33333" stroke-linecap="round" stroke-linejoin="round"/>
<path d="M313.376 144.091L302.379 150.44" stroke="#1AD1B1" stroke-width="1.33333" stroke-linecap="round" stroke-linejoin="round"/>
<path d="M23.8618 198.313L108.101 246.947" stroke="#1AD1B1" stroke-width="1.33333" stroke-linecap="round" stroke-linejoin="round"/>
<path d="M23.8618 216.727L108.101 265.361" stroke="#1AD1B1" stroke-width="1.33333" stroke-linecap="round" stroke-linejoin="round"/>
<path d="M146.451 650.527L230.69 699.161" stroke="#1AD1B1" stroke-width="1.33333" stroke-linecap="round" stroke-linejoin="round"/>
<path d="M302.946 166.167V173.868C302.946 175.72 304.95 176.875 306.551 175.95L313.221 172.099C313.964 171.67 314.423 170.875 314.423 170.017V162.316C314.423 160.464 312.419 159.309 310.816 160.234L304.148 164.085C303.403 164.514 302.946 165.306 302.946 166.167Z" stroke="#1AD1B1" stroke-width="1.33333" stroke-linecap="round" stroke-linejoin="round"/>
<path d="M435.688 635.987V658.563C435.688 660.412 437.692 661.57 439.293 660.644L452.006 652.556C452.751 652.124 453.208 651.332 453.208 650.474V627.899C453.208 626.047 451.204 624.892 449.601 625.817L436.891 633.906C436.145 634.335 435.688 635.129 435.688 635.987Z" stroke="#1AD1B1" stroke-width="1.33333" stroke-linecap="round" stroke-linejoin="round"/>
<path d="M570.907 415.784L679.697 353.577L744.881 391.202L636.365 453.578L570.907 415.784Z" stroke="#1AD1B1" stroke-width="1.33333" stroke-linecap="round" stroke-linejoin="round"/>
<path d="M683.688 452.118L753.259 411.952V483.879" stroke="#1AD1B1" stroke-width="1.33333" stroke-linecap="round" stroke-linejoin="round"/>
<path d="M124.605 151.763L39.3094 102.519L124.605 53.276" stroke="#1AD1B1" stroke-width="1.33333" stroke-linecap="round" stroke-linejoin="round"/>
<path d="M209.898 585.083L337.839 511.216L380.485 535.84" stroke="#1AD1B1" stroke-width="1.33333" stroke-linecap="round" stroke-linejoin="round"/>
<path d="M368.876 336.29L384.99 326.988C401.411 317.505 421.642 317.505 438.065 326.985L454.181 336.29L432.857 348.605L420.33 341.369C414.883 338.226 408.175 338.226 402.728 341.369L390.2 348.605L368.876 336.29Z" stroke="#1AD1B1" stroke-width="1.33333" stroke-linecap="round" stroke-linejoin="round"/>
<path d="M454.181 336.29V360.914L432.855 373.228L420.33 365.995C414.883 362.852 408.175 362.852 402.728 365.995L390.203 373.228L368.876 360.914V336.29" stroke="#1AD1B1" stroke-width="1.33333" stroke-linecap="round" stroke-linejoin="round"/>
<path d="M432.859 348.604V373.228" stroke="#1AD1B1" stroke-width="1.33333" stroke-linecap="round" stroke-linejoin="round"/>
<path d="M390.205 348.604V373.228" stroke="#1AD1B1" stroke-width="1.33333" stroke-linecap="round" stroke-linejoin="round"/>
<path d="M499.899 577.91C488.147 571.125 488.15 560.022 499.902 553.239C511.653 546.454 530.884 546.454 542.636 553.239C554.388 560.022 554.386 571.125 542.634 577.91C530.882 584.696 511.651 584.696 499.899 577.91Z" stroke="#1AD1B1" stroke-width="1.33333" stroke-linecap="round" stroke-linejoin="round"/>
<path d="M551.403 589.341C551.827 594.113 548.906 598.958 542.632 602.581C530.883 609.369 511.649 609.369 499.9 602.581C493.218 598.721 490.332 593.471 491.251 588.411" stroke="#1AD1B1" stroke-width="1.33333" stroke-linecap="round" stroke-linejoin="round"/>
<path d="M542.638 577.912H542.632" stroke="#1AD1B1" stroke-width="1.33333" stroke-linecap="round" stroke-linejoin="round"/>
<path d="M551.399 565.574V590.245" stroke="#1AD1B1" stroke-width="1.33333" stroke-linecap="round" stroke-linejoin="round"/>
<path d="M491.257 567.348V588.512" stroke="#1AD1B1" stroke-width="1.33333" stroke-linecap="round" stroke-linejoin="round"/>
<path d="M507.734 572.301C500.255 568.239 500.257 561.595 507.736 557.533C515.215 553.471 527.452 553.471 534.929 557.533C542.408 561.595 542.408 568.239 534.929 572.301C527.45 576.363 515.213 576.363 507.734 572.301Z" stroke="#1AD1B1" stroke-width="1.33333" stroke-linecap="round" stroke-linejoin="round"/>
<path d="M422.35 850.87L450.157 866.775L492.005 794.288L464.199 778.386L422.35 850.87Z" stroke="#1AD1B1" stroke-width="1.33333" stroke-linecap="round" stroke-linejoin="round"/>
<path d="M492.003 794.287L509.181 818.449L492.003 842.611L450.155 866.773" stroke="#1AD1B1" stroke-width="1.33333" stroke-linecap="round" stroke-linejoin="round"/>
</svg>
