<svg width="327" height="410" viewBox="0 0 327 410" fill="none" xmlns="http://www.w3.org/2000/svg">
<path d="M325.721 167.31V209.235L271.259 240.679L234.949 219.719V198.759V177.789L253.106 167.31L289.416 146.35L325.721 167.31Z" stroke="#1AD1B1" stroke-width="1.33333" stroke-linecap="round" stroke-linejoin="round"/>
<path d="M253.107 167.31L234.949 156.831L198.64 135.865L162.334 114.906L126.024 93.9405" stroke="#1AD1B1" stroke-width="1.33333" stroke-linecap="round" stroke-linejoin="round"/>
<path d="M234.952 177.792L271.26 198.754L325.722 167.31" stroke="#1AD1B1" stroke-width="1.33333" stroke-linecap="round" stroke-linejoin="round"/>
<path d="M271.261 198.755V240.68" stroke="#1AD1B1" stroke-width="1.33333" stroke-linecap="round" stroke-linejoin="round"/>
<path d="M234.953 219.717L71.5647 125.386" stroke="#1AD1B1" stroke-width="1.33333" stroke-linecap="round" stroke-linejoin="round"/>
<path d="M180.489 314.049L289.415 376.937L234.951 408.382L126.027 345.494" stroke="#1AD1B1" stroke-width="1.33333" stroke-linecap="round" stroke-linejoin="round"/>
<path d="M60.9705 131.494L136.559 87.8529V35.4828L60.9705 79.1247V131.494Z" stroke="#1AD1B1" stroke-width="1.33333" stroke-linecap="round" stroke-linejoin="round"/>
<path d="M76.8308 1.00043L1.23646 44.6374L1 44.7731V96.8578" stroke="#1AD1B1" stroke-width="1.33333" stroke-linecap="round" stroke-linejoin="round"/>
<path d="M86.8383 55.9073V55.9023L123.143 34.9429H123.148V34.9369" stroke="#1AD1B1" stroke-width="1.33333" stroke-linecap="round" stroke-linejoin="round"/>
<path d="M126.025 72.9809L107.873 62.4957" stroke="#1AD1B1" stroke-width="1.33333" stroke-linecap="round" stroke-linejoin="round"/>
<path d="M76.8318 0.999999L136.557 35.4817V35.4867V87.8498V87.8548" stroke="#1AD1B1" stroke-width="1.33333" stroke-linecap="round" stroke-linejoin="round"/>
<path d="M1.23618 44.6375L60.9676 79.1252V79.1302V131.482V131.487V131.492" stroke="#1AD1B1" stroke-width="1.33333" stroke-linecap="round" stroke-linejoin="round"/>
<path d="M1 96.8579L60.9669 131.481V131.487V131.492" stroke="#1AD1B1" stroke-width="1.33333" stroke-linecap="round" stroke-linejoin="round"/>
<path d="M198.64 240.684V240.679H198.645V261.55V282.604V303.568H198.64L180.493 314.047H180.487L126.031 345.492H126.025L107.873 355.977V293.088" stroke="#1AD1B1" stroke-width="1.33333" stroke-linecap="round" stroke-linejoin="round"/>
<path d="M53.409 324.533V261.643L144.176 209.239V209.234H144.181V209.239" stroke="#1AD1B1" stroke-width="1.33333" stroke-linecap="round" stroke-linejoin="round"/>
<path d="M53.409 261.643L107.871 293.087V355.975L53.409 324.531V261.643Z" stroke="#1AD1B1" stroke-width="1.33333" stroke-linecap="round" stroke-linejoin="round"/>
<path d="M180.487 293.088L162.334 282.603" stroke="#1AD1B1" stroke-width="1.33333" stroke-linecap="round" stroke-linejoin="round"/>
<path d="M144.183 209.244H144.178V209.234H144.183V209.244ZM144.183 209.244L198.64 240.683V261.549V282.608V303.567" stroke="#1AD1B1" stroke-width="1.33333" stroke-linecap="round" stroke-linejoin="round"/>
<path d="M271.261 240.679L253.103 251.164L234.951 261.643L216.798 272.123L198.646 282.604L198.641 282.608" stroke="#1AD1B1" stroke-width="1.33333" stroke-linecap="round" stroke-linejoin="round"/>
<path d="M234.95 219.719L198.646 240.679H198.641V240.684" stroke="#1AD1B1" stroke-width="1.33333" stroke-linecap="round" stroke-linejoin="round"/>
<path d="M71.5647 125.385V83.4592L126.027 52.0155V93.9404L71.5647 125.385Z" stroke="#1AD1B1" stroke-width="1.33333" stroke-linecap="round" stroke-linejoin="round"/>
<path d="M126.027 345.494V303.568L180.489 272.124V314.049L126.027 345.494Z" stroke="#1AD1B1" stroke-width="1.33333" stroke-linecap="round" stroke-linejoin="round"/>
<path d="M240.168 222.652V192.777L266.04 207.714V237.589L240.168 222.652Z" stroke="#1AD1B1" stroke-width="1.33333" stroke-linecap="round" stroke-linejoin="round"/>
<path d="M107.873 146.348L162.336 114.904" stroke="#1AD1B1" stroke-width="1.33333" stroke-linecap="round" stroke-linejoin="round"/>
<path d="M198.64 135.865L189.365 141.223" stroke="#1AD1B1" stroke-width="1.33333" stroke-linecap="round" stroke-linejoin="round"/>
<path d="M162.131 156.945L144.178 167.31" stroke="#1AD1B1" stroke-width="1.33333" stroke-linecap="round" stroke-linejoin="round"/>
<path d="M180.49 188.273L234.954 156.829" stroke="#1AD1B1" stroke-width="1.33333" stroke-linecap="round" stroke-linejoin="round"/>
<path d="M216.797 335.013L209.989 338.941L209.502 339.223" stroke="#1AD1B1" stroke-width="1.33333" stroke-linecap="round" stroke-linejoin="round"/>
<path d="M185.882 352.861L162.335 366.456" stroke="#1AD1B1" stroke-width="1.33333" stroke-linecap="round" stroke-linejoin="round"/>
<path d="M198.643 387.42L253.105 355.976" stroke="#1AD1B1" stroke-width="1.33333" stroke-linecap="round" stroke-linejoin="round"/>
<path d="M234.95 198.759L217.122 209.051" stroke="#1AD1B1" stroke-width="1.33333" stroke-linecap="round" stroke-linejoin="round"/>
<path d="M253.108 251.164H253.103L235.06 240.647" stroke="#1AD1B1" stroke-width="1.33333" stroke-linecap="round" stroke-linejoin="round"/>
<path d="M223.558 233.949L217.122 230.199" stroke="#1AD1B1" stroke-width="1.33333" stroke-linecap="round" stroke-linejoin="round"/>
<path d="M216.798 272.123L198.646 261.549H198.641" stroke="#1AD1B1" stroke-width="1.33333" stroke-linecap="round" stroke-linejoin="round"/>
<path d="M234.948 261.643L228.973 258.16" stroke="#1AD1B1" stroke-width="1.33333" stroke-linecap="round" stroke-linejoin="round"/>
<path d="M107.873 293.088L198.97 240.679L209.491 246.811" stroke="#1AD1B1" stroke-width="1.33333" stroke-linecap="round" stroke-linejoin="round"/>
<path d="M133.769 52.72L129.087 55.4228" stroke="#1AD1B1" stroke-width="1.33333" stroke-linecap="round" stroke-linejoin="round"/>
<path d="M133.769 57.3143L129.087 60.0172" stroke="#1AD1B1" stroke-width="1.33333" stroke-linecap="round" stroke-linejoin="round"/>
<path d="M133.769 61.909L129.087 64.6118" stroke="#1AD1B1" stroke-width="1.33333" stroke-linecap="round" stroke-linejoin="round"/>
<path d="M10.525 84.9909L46.3846 105.694" stroke="#1AD1B1" stroke-width="1.33333" stroke-linecap="round" stroke-linejoin="round"/>
<path d="M10.525 92.8294L46.3846 113.532" stroke="#1AD1B1" stroke-width="1.33333" stroke-linecap="round" stroke-linejoin="round"/>
<path d="M62.7101 277.494L98.5696 298.197" stroke="#1AD1B1" stroke-width="1.33333" stroke-linecap="round" stroke-linejoin="round"/>
<path d="M129.328 71.3064V74.585C129.328 75.3732 130.181 75.8651 130.863 75.471L133.702 73.8317C134.019 73.6491 134.214 73.3109 134.214 72.9457V69.6671C134.214 68.8789 133.361 68.387 132.679 68.7811L129.84 70.4204C129.523 70.603 129.328 70.9402 129.328 71.3064Z" stroke="#1AD1B1" stroke-width="1.33333" stroke-linecap="round" stroke-linejoin="round"/>
<path d="M185.835 271.304V280.915C185.835 281.702 186.689 282.195 187.37 281.801L192.782 278.357C193.099 278.174 193.294 277.837 193.294 277.471V267.861C193.294 267.073 192.44 266.581 191.758 266.975L186.347 270.418C186.03 270.601 185.835 270.939 185.835 271.304Z" stroke="#1AD1B1" stroke-width="1.33333" stroke-linecap="round" stroke-linejoin="round"/>
<path d="M243.397 177.566L289.708 151.085L317.456 167.102L271.262 193.655L243.397 177.566Z" stroke="#1AD1B1" stroke-width="1.33333" stroke-linecap="round" stroke-linejoin="round"/>
<path d="M291.407 193.033L321.022 175.935V206.553" stroke="#1AD1B1" stroke-width="1.33333" stroke-linecap="round" stroke-linejoin="round"/>
<path d="M53.4105 65.1748L17.1009 44.2124L53.4105 23.25" stroke="#1AD1B1" stroke-width="1.33333" stroke-linecap="round" stroke-linejoin="round"/>
<path d="M89.7187 249.635L144.182 218.19L162.336 228.673" stroke="#1AD1B1" stroke-width="1.33333" stroke-linecap="round" stroke-linejoin="round"/>
<path d="M157.394 143.726L164.254 139.766C171.244 135.73 179.856 135.73 186.847 139.765L193.708 143.726L184.63 148.969L179.298 145.888C176.979 144.551 174.123 144.551 171.805 145.888L166.472 148.969L157.394 143.726Z" stroke="#1AD1B1" stroke-width="1.33333" stroke-linecap="round" stroke-linejoin="round"/>
<path d="M193.708 143.726V154.208L184.629 159.451L179.298 156.372C176.979 155.034 174.123 155.034 171.805 156.372L166.473 159.451L157.394 154.208V143.726" stroke="#1AD1B1" stroke-width="1.33333" stroke-linecap="round" stroke-linejoin="round"/>
<path d="M184.631 148.968V159.451" stroke="#1AD1B1" stroke-width="1.33333" stroke-linecap="round" stroke-linejoin="round"/>
<path d="M166.474 148.968V159.451" stroke="#1AD1B1" stroke-width="1.33333" stroke-linecap="round" stroke-linejoin="round"/>
<path d="M213.169 246.582C208.167 243.693 208.168 238.967 213.17 236.079C218.173 233.191 226.36 233.191 231.362 236.079C236.365 238.967 236.364 243.693 231.361 246.582C226.359 249.47 218.172 249.47 213.169 246.582Z" stroke="#1AD1B1" stroke-width="1.33333" stroke-linecap="round" stroke-linejoin="round"/>
<path d="M235.094 251.448C235.275 253.479 234.031 255.541 231.36 257.084C226.359 259.973 218.171 259.973 213.17 257.084C210.325 255.441 209.097 253.206 209.488 251.052" stroke="#1AD1B1" stroke-width="1.33333" stroke-linecap="round" stroke-linejoin="round"/>
<path d="M231.363 246.582H231.36" stroke="#1AD1B1" stroke-width="1.33333" stroke-linecap="round" stroke-linejoin="round"/>
<path d="M235.092 241.33V251.832" stroke="#1AD1B1" stroke-width="1.33333" stroke-linecap="round" stroke-linejoin="round"/>
<path d="M209.491 242.085V251.095" stroke="#1AD1B1" stroke-width="1.33333" stroke-linecap="round" stroke-linejoin="round"/>
<path d="M216.504 244.194C213.321 242.465 213.322 239.636 216.505 237.907C219.689 236.178 224.898 236.178 228.081 237.907C231.265 239.636 231.265 242.465 228.081 244.194C224.897 245.923 219.688 245.923 216.504 244.194Z" stroke="#1AD1B1" stroke-width="1.33333" stroke-linecap="round" stroke-linejoin="round"/>
<path d="M180.158 362.778L191.995 369.549L209.809 338.692L197.972 331.922L180.158 362.778Z" stroke="#1AD1B1" stroke-width="1.33333" stroke-linecap="round" stroke-linejoin="round"/>
<path d="M209.808 338.691L217.121 348.977L209.808 359.262L191.994 369.548" stroke="#1AD1B1" stroke-width="1.33333" stroke-linecap="round" stroke-linejoin="round"/>
</svg>
