<svg width="128" height="280" viewBox="0 0 128 280" fill="none" xmlns="http://www.w3.org/2000/svg">
<path d="M15.7946 253.19V262.103M5.26733 253.19V262.103M122.677 253.19V262.103M112.149 253.19V262.103M117.449 12.4664H125.405M2.15407 12.4664H10.1104M2.15407 231.327H125.405M10.1104 211.724H117.449M10.1104 193.63H117.449M10.1104 175.536H117.449M10.1104 157.441H117.449M10.1104 139.347H117.449M10.1104 61.8806H117.449M10.1104 43.5037H117.449M85.517 139.347V122.203C85.517 116.314 83.1271 110.668 78.873 106.504C74.6188 102.34 72.2289 96.6928 72.2289 90.8051V88.8807H57.7551V90.8051C57.7551 96.6928 55.3652 102.34 51.1111 106.504C46.8569 110.668 44.4671 116.314 44.4671 122.203V139.347H85.517ZM79.9259 39.1741V35.7898H47.6339V39.1741H31.1386V43.5037H96.4213V39.1741H79.9259ZM79.9259 57.5526V54.1684H47.6339V57.5526H31.1386V61.8815H96.4213V57.5526H79.9259ZM117.449 260.525C112.185 260.525 107.918 264.702 107.918 269.854C107.918 275.006 112.185 279.182 117.449 279.182C122.714 279.182 126.981 275.006 126.981 269.854C126.981 264.702 122.714 260.525 117.449 260.525ZM10.5305 260.525C5.26733 260.525 1 264.702 1 269.854C1 275.006 5.26733 279.182 10.5305 279.182C15.7946 279.182 20.0619 275.006 20.0619 269.854C20.0619 264.702 15.7946 260.525 10.5305 260.525ZM117.449 9.26021H10.1104V231.327H117.449V9.26021ZM125.405 253.19H2.15407V1H125.405V253.19Z" stroke="#1AD1B1" stroke-width="1.5" stroke-linecap="round" stroke-linejoin="round"/>
</svg>
