<svg width="86" height="36" viewBox="0 0 86 36" fill="none" xmlns="http://www.w3.org/2000/svg">
<g id="Stripe_Logo,_revised_2016 1" clip-path="url(#clip0_2417_9873)">
<g id="Group">
<path id="Vector" fill-rule="evenodd" clip-rule="evenodd" d="M85.4952 18.5794C85.4952 12.5997 82.5676 7.88135 76.9721 7.88135C71.3529 7.88135 67.9531 12.5997 67.9531 18.5327C67.9531 25.5635 71.9668 29.114 77.7276 29.114C80.5371 29.114 82.662 28.4833 84.2675 27.5957V22.9241C82.662 23.7182 80.8205 24.2088 78.4831 24.2088C76.1929 24.2088 74.1625 23.4146 73.9028 20.6583H85.448C85.448 20.3547 85.4952 19.14 85.4952 18.5794ZM73.832 16.3604C73.832 13.7209 75.461 12.6231 76.9485 12.6231C78.3887 12.6231 79.9233 13.7209 79.9233 16.3604H73.832Z" fill="white"/>
<path id="Vector_2" fill-rule="evenodd" clip-rule="evenodd" d="M58.8395 7.88135C56.5258 7.88135 55.0384 8.95583 54.212 9.70329L53.9051 8.25508H48.7109V35.4908L54.6134 34.2528L54.637 27.6424C55.4869 28.2497 56.7383 29.114 58.8159 29.114C63.0421 29.114 66.8905 25.7504 66.8905 18.3458C66.8669 11.572 62.9713 7.88135 58.8395 7.88135ZM57.423 23.9752C56.03 23.9752 55.2036 23.4847 54.637 22.8773L54.6134 14.2114C55.2272 13.534 56.0772 13.0669 57.423 13.0669C59.5714 13.0669 61.0589 15.4494 61.0589 18.5094C61.0589 21.6394 59.5951 23.9752 57.423 23.9752Z" fill="white"/>
<path id="Vector_3" fill-rule="evenodd" clip-rule="evenodd" d="M40.5898 6.50307L46.5159 5.24172V0.5L40.5898 1.73799V6.50307Z" fill="white"/>
<path id="Vector_4" d="M46.5159 8.27832H40.5898V28.7168H46.5159V8.27832Z" fill="white"/>
<path id="Vector_5" fill-rule="evenodd" clip-rule="evenodd" d="M34.2392 10.0066L33.8614 8.27807H28.7617V28.7165H34.6642V14.8651C36.0571 13.0665 38.4181 13.3935 39.15 13.6505V8.27807C38.3945 7.99777 35.6322 7.48388 34.2392 10.0066Z" fill="white"/>
<path id="Vector_6" fill-rule="evenodd" clip-rule="evenodd" d="M22.4328 3.20947L16.672 4.4241L16.6484 23.1341C16.6484 26.5911 19.2691 29.1371 22.7634 29.1371C24.6994 29.1371 26.116 28.7868 26.8951 28.3663V23.6246C26.1396 23.9282 22.4092 25.0027 22.4092 21.5457V13.2535H26.8951V8.27821H22.4092L22.4328 3.20947Z" fill="white"/>
<path id="Vector_7" fill-rule="evenodd" clip-rule="evenodd" d="M6.47328 14.2114C6.47328 13.3005 7.22879 12.9501 8.48011 12.9501C10.2745 12.9501 12.541 13.4873 14.3353 14.445V8.95583C12.3757 8.185 10.4397 7.88135 8.48011 7.88135C3.68732 7.88135 0.5 10.3573 0.5 14.4917C0.5 20.9386 9.47172 19.9108 9.47172 22.6905C9.47172 23.765 8.52733 24.1153 7.20518 24.1153C5.24557 24.1153 2.74293 23.3212 0.759707 22.2467V27.8059C2.95542 28.7403 5.17474 29.1374 7.20518 29.1374C12.116 29.1374 15.4922 26.7315 15.4922 22.5503C15.4686 15.5896 6.47328 16.8276 6.47328 14.2114Z" fill="white"/>
</g>
</g>
<defs>
<clipPath id="clip0_2417_9873">
<rect width="85" height="35" fill="white" transform="translate(0.5 0.5)"/>
</clipPath>
</defs>
</svg>
