<svg width="336" height="337" viewBox="0 0 336 337" fill="none" xmlns="http://www.w3.org/2000/svg">
<path opacity="0.2" d="M27.3794 250.219C24.7809 251.726 21.444 250.845 20.0218 248.199C3.81993 218.057 -2.81135 183.641 1.08964 149.557C4.99062 115.473 19.2266 83.4449 41.8198 57.7432C43.8031 55.4871 47.2527 55.3826 49.4435 57.4378V57.4378C51.6343 59.4931 51.7361 62.9294 49.7579 65.19C28.7623 89.1824 15.5323 119.034 11.8973 150.794C8.26227 182.554 14.4054 214.623 29.4372 242.739C30.8535 245.388 29.9779 248.712 27.3794 250.219V250.219Z" fill="#8B52FC"/>
<path opacity="0.2" d="M56.4919 50.3725C54.4313 48.1866 54.5271 44.7371 56.7785 42.7484C76.2804 25.5216 99.5381 13.0432 124.729 6.32836C151.673 -0.85393 179.982 -1.21634 207.101 5.27382C234.221 11.764 259.298 24.9026 280.072 43.5046C299.494 60.896 314.582 82.5515 324.173 106.741C325.28 109.533 323.804 112.652 320.977 113.668V113.668C318.15 114.685 315.044 113.213 313.93 110.423C304.955 87.9318 290.892 67.7954 272.815 51.6086C253.386 34.211 229.933 21.9232 204.569 15.8533C179.206 9.78337 152.73 10.1223 127.531 16.8395C104.085 23.0893 82.4293 34.6775 64.2445 50.6684C61.9887 52.652 58.5524 52.5583 56.4919 50.3725V50.3725Z" fill="#8B52FC"/>
<path d="M323.249 120.454C326.118 119.563 329.175 121.165 329.972 124.061C335.668 144.748 337.353 166.353 334.917 187.705C332.481 209.057 325.973 229.727 315.763 248.599C314.333 251.241 310.994 252.113 308.4 250.599V250.599C305.805 249.085 304.939 245.758 306.362 243.113C315.815 225.546 321.844 206.325 324.109 186.472C326.374 166.619 324.83 146.533 319.577 127.289C318.786 124.391 320.38 121.345 323.249 120.454V120.454Z" fill="white"/>
</svg>
